<?xml version="1.0" encoding="utf-8"?>
<svg xmlns="http://www.w3.org/2000/svg" viewBox="0 0 24 24">
<style type="text/css">
	.st0{fill:#000;}
</style>
    <g>
	<path class="st0" d="M19.3,18c-1.1,0.3-2.2,0.5-3.3,0.5c-5.8,0-10.4-4.7-10.4-10.4c0-2.3,0.8-4.5,2.2-6.4c0.1-0.1,0.1-0.2,0-0.3
		C7.7,1.4,7.6,1.3,7.5,1.3C3,2.8,0,7,0,11.7c0,6,4.9,10.9,10.9,10.9c3.4,0,6.6-1.6,8.7-4.3c0.1-0.1,0.1-0.2,0-0.3
		C19.5,18,19.4,18,19.3,18L19.3,18z M19.3,18"/>
        <g>
		<g>
			<polygon class="st0"
                     points="24,9.9 20.7,10.9 19.7,14.1 18.7,10.8 15.5,9.8 18.8,8.9 19.8,5.6 20.7,8.9"/>
            <polygon class="st0"
                     points="16.8,4.3 14.5,5 13.9,7.4 13.1,5.1 10.8,4.4 13.1,3.7 13.7,1.3 14.5,3.6"/>
		</g>
	</g>
</g>
</svg>
