<?xml version="1.0" encoding="utf-8"?>
<svg xmlns="http://www.w3.org/2000/svg" viewBox="0 0 24 24">
    <style type="text/css">
        .st0{fill-rule:evenodd;clip-rule:evenodd;fill:#000;}
    </style>
    <g>
        <path class="st0" d="M4.1,12c0-0.6-0.5-1-1-1H1c-0.6,0-1,0.5-1,1c0,0.6,0.5,1,1,1h2.1C3.7,13,4.1,12.6,4.1,12L4.1,12z M5.1,17.8
		c-0.3,0-0.5,0.1-0.7,0.3L3,19.5c-0.2,0.2-0.3,0.4-0.3,0.7c0,0.6,0.5,1,1,1c0.3,0,0.5-0.1,0.7-0.3l1.4-1.4c0.2-0.2,0.3-0.4,0.3-0.7
		C6.2,18.3,5.7,17.8,5.1,17.8L5.1,17.8z M12,4.1c0.6,0,1-0.5,1-1V1c0-0.6-0.5-1-1-1c-0.6,0-1,0.5-1,1v2.1C11,3.7,11.4,4.1,12,4.1
		L12,4.1z M18.9,6.2c0.3,0,0.5-0.1,0.7-0.3L21,4.5c0.2-0.2,0.3-0.4,0.3-0.7c0-0.6-0.5-1-1-1c-0.3,0-0.5,0.1-0.7,0.3l-1.4,1.4
		c-0.2,0.2-0.3,0.4-0.3,0.7C17.8,5.7,18.3,6.2,18.9,6.2L18.9,6.2z M4.4,5.9c0.2,0.2,0.4,0.3,0.7,0.3c0.6,0,1-0.5,1-1
		c0-0.3-0.1-0.5-0.3-0.7L4.5,3C4.3,2.9,4.1,2.7,3.8,2.7c-0.6,0-1,0.5-1,1c0,0.3,0.1,0.5,0.3,0.7L4.4,5.9z M23,11h-2.1
		c-0.6,0-1,0.5-1,1c0,0.6,0.5,1,1,1H23c0.6,0,1-0.5,1-1C24,11.4,23.5,11,23,11L23,11z M19.6,18.1c-0.2-0.2-0.4-0.3-0.7-0.3
		c-0.6,0-1,0.5-1,1c0,0.3,0.1,0.5,0.3,0.7l1.4,1.4c0.2,0.2,0.4,0.3,0.7,0.3c0.6,0,1-0.5,1-1c0-0.3-0.1-0.5-0.3-0.7L19.6,18.1z
		 M12,19.9c-0.6,0-1,0.5-1,1V23c0,0.6,0.5,1,1,1c0.6,0,1-0.5,1-1v-2.1C13,20.3,12.6,19.9,12,19.9L12,19.9z M12,4.8
		C8,4.8,4.8,8,4.8,12c0,4,3.2,7.2,7.2,7.2c4,0,7.2-3.2,7.2-7.2C19.2,8,16,4.8,12,4.8L12,4.8z M12,17.1c-2.8,0-5.1-2.3-5.1-5.1
		c0-2.8,2.3-5.1,5.1-5.1c2.8,0,5.1,2.3,5.1,5.1C17.1,14.8,14.8,17.1,12,17.1L12,17.1z M12,17.1"/>
    </g>
</svg>
