<?xml version="1.0" encoding="utf-8"?>
<svg xmlns="http://www.w3.org/2000/svg" viewBox="0 0 890 687">
<style type="text/css">
	.st0{fill-rule:evenodd;clip-rule:evenodd;fill:none;stroke:#000000;stroke-linecap:round;stroke-linejoin:round;stroke-miterlimit:3;}
	.st1{fill-rule:evenodd;clip-rule:evenodd;}
	.st2{fill-rule:evenodd;clip-rule:evenodd;fill:#FFA300;}
	.st3{fill-rule:evenodd;clip-rule:evenodd;fill:#7B7B7B;}
	.st4{fill-rule:evenodd;clip-rule:evenodd;fill:#CB8200;}
	.st5{fill-rule:evenodd;clip-rule:evenodd;fill-opacity:0.5608;}
	.st6{fill-rule:evenodd;clip-rule:evenodd;fill:#FFFFFF;}
	.st7{fill-rule:evenodd;clip-rule:evenodd;fill:#794D00;}
	.st8{fill-rule:evenodd;clip-rule:evenodd;fill:#CD8300;}
	.st9{fill-rule:evenodd;clip-rule:evenodd;fill:#4F4F4F;}
	.st10{fill-rule:evenodd;clip-rule:evenodd;fill:#A6A6A6;}
	.st11{fill:#FFFFFF;}
</style>
<g>
	<g>
		<polygon class="st1" points="793.9,229.6 779.4,225.7 826.5,65.9 839.2,56.4 890.3,139.3 880.7,145.7 839.2,78.7 		"/>
		<polygon class="st2" points="648.2,239.8 837.2,290.4 736.1,554.2 604,518.7 		"/>
		<polygon class="st3" points="837.2,290.4 648.2,239.8 635.5,236.4 664.2,195.1 779.4,225.7 793.9,229.6 853.8,245.6 853.8,294.8
					"/>
	</g>
	<g>
		<path class="st1" d="M610.8,171.3l-37,365.3h-21.7l27.5-365.3H610.8z M543.1,171.3l-16.3,365.3h-25.5l5.4-365.3H543.1z
			 M468.8,171.3l6,365.3h-24.7l-16.5-365.3H468.8z M404.5,171.3l25.3,365.3h-19.7l-33.9-365.3H404.5z M358.2,171.3l39.2,365.3h-6.8
			l-42.2-365.3H358.2z"/>
		<path class="st2" d="M351.1,91.6c0.3-0.5,0.5-0.9,0.8-1.2c2.9-2.4,5.8-3.6,8.6-3.6c2,0,3.5,0.3,4.4,1c0.5,0.4,1.3,1.3,2.2,2.6
			c-1.5-8,0.3-12,5.4-12c2.7,0.1,6.2,1.1,10.6,2.8c1.7,0,2.5-0.5,2.4-1.4l-1.6-2.6c2.5,0,5,1.3,7.4,4c-2.4-7.2-2.5-14.6-0.2-22.1
			c2.1-7.9,5.8-11.8,10.8-11.8c0.4,0,2,0.7,4.8,2c2.8,1.5,4.6,2.7,5.4,3.6c1.6-1.7,2.7-3.5,3.2-5.2c0.4-0.3,2.4-0.4,6-0.4
			c1.9,0,4.6,0.6,8.2,1.8c3.6,1.2,7.8,1.8,12.6,1.8c0,1.3,0.3,2.9,1,4.8c0.5,1.9,0.8,3.4,0.8,4.6c3.7-2.9,6.4-9.1,7.8-18.5
			c2.1-13.3,3.3-20.3,3.4-21.1c2.5,0.4,5.3,1.4,8.2,3c2.8,1.6,4.5,3.1,5,4.6l1,0.2c0.7,0.4,1,0.9,1,1.4c0.7-3.2,1.7-5.8,3.2-7.8
			c0.9-1.1,2.3-2.7,4.2-5c3.3,0.4,5.9,1.5,7.6,3.4c2.3,2.3,2.9,4.9,1.8,7.8c1.3-1.3,4.4-5.4,9-12.2c4.1-5.8,6.8-8.6,7.8-8.6
			c0.8,0,2.6,1.4,5.4,4.2c3.2,2.8,5.2,5.2,5.8,7c0.5-6,3-10.8,7.4-14.3C526.8,1.5,531,0,535.7,0c8.8,0,13.1,3.8,12.9,11.4
			c-0.1,4.1-0.4,9.8-0.8,16.9c4.6-1.2,8.3-0.7,11.2,1.6c0.5,0.4,1.1,0.9,1.6,1.4c1.1,1.2,1.8,2.7,2.2,4.6c-1.1,2.3-2.1,3.4-3,3.4
			c-1.6,0-2.4-0.7-2.4-2c-0.5,0.7-1.6,1.7-3.2,3c-1.5,1.3-2.4,2-2.8,2c-0.5,0-1.3-0.7-2.2-2c-0.8-1.3-1.3-2.7-1.6-4
			c0,2.7-1.9,6.6-5.8,11.8c-0.8,0-1.5-0.1-2-0.2c-3.5,6.7-6.1,10-7.8,10c-0.5,0-0.9,0-1.2,0c-0.3,0.1-0.5,0.3-0.6,0.4l-0.2,0.2
			c-0.9,1.5-2.3,2.2-4,2.2c-2.5,0-3.8-2.3-3.8-6.8c-1.6,3.7-3.1,6.3-4.4,7.6c-1.3,1.5-3.1,2.2-5.4,2.2c-1.7,0-2.9-0.7-3.4-2
			c-0.5-0.9-0.9-1.7-1-2.2c-0.1,0.4-0.5,0.8-1.2,1.2c-1.3,1.3-2.7,2-4.2,2c-0.1,0-0.3,0-0.4,0c0.4,0.9,0.5,2.3,0.4,4
			c-0.7,0.7-1.8,1-3.4,1l2.4,4.8c-0.3,0-0.5,0.1-0.6,0.4l-0.4,0.6h-2.4c3.1,0.1,5.2,1.7,6.4,4.8c-2,0-3,0.3-3,1
			c1.5,0.8,2.4,1.5,2.8,2c0.1,0.3,0.2,1.1,0.2,2.4c0,1.5-0.7,2.8-2,4c-0.7,0.7-1.3,1.1-2,1.4c-5.9,5.9-9.8,8.8-11.6,8.8
			c-1.1,0-1.7-0.1-2-0.4v-0.6c0-1.9,0.3-3.1,1-3.8h-1c-0.1,0.3-1.1,1-3,2.2c-1.6,1.1-2.5,1.6-2.8,1.6c-1.1,0-1.6-0.1-1.6-0.4
			c-0.1-0.4-0.3-0.6-0.4-0.6c-0.8-1.6-0.7-2.9,0.2-4c0.7-0.7,1.6-1.6,2.8-2.8c-2.7,1.3-5,2-7,2c-1.9,0-3.1-0.3-3.8-1
			c0.1-2.1,1.4-4.4,3.8-6.8c-3.9,0.3-5.8-0.9-5.8-3.4c0-1.3,0.7-2.5,2-3.4c0.8-0.7,2.1-1.7,3.8-3c-2.5,1.3-4.3,2-5.2,2
			c-1.1,0-1.8-0.2-2.2-0.6c-0.7-0.3-1.1-0.4-1.4-0.4v-6.8c-1.2,1.2-2.7,1.8-4.4,1.8c-0.9,0-1.5-0.1-1.6-0.4
			c-0.4-0.4-0.7-0.6-0.8-0.6v-4.8c-0.9-0.5-1.9-0.9-2.8-1c0.5,0.9,0.8,1.9,0.8,3c0,1.6-0.3,2.9-0.8,3.8h-2c1.9,1.1,2.8,2.1,2.8,3
			c0,0.9-0.1,1.7-0.2,2.2c0.4-0.1,0.8-0.2,1.2-0.2c0,1.3-0.3,3.6-1,6.8h0.6c0.3,0.3,0.4,0.9,0.4,2c0,3.6-1.9,5.9-5.8,6.8v-2.2
			c-0.9,0.7-2,1.3-3.2,2c-2.3,1.5-3.8,2.2-4.6,2.2c-1.2,0-1.9,0-2,0c-0.1-0.1-0.5-0.5-1-1v-2l2-2h-1c-1.3,0.7-2.5,1-3.6,1
			c-2.1,0.1-3.2-0.8-3.2-2.8c0-1.2,0.7-2.7,2-4.4c1.6-2.4,2.5-3.9,2.8-4.4c-0.7,0.5-1.6,0.8-2.8,0.8c-0.4-2.4,0.1-4.8,1.6-7
			c-0.3,0.1-0.8,0.2-1.6,0.2c-1.1,0-1.7-0.1-2-0.4c-0.5-0.4-0.9-0.6-1-0.6v-1.8c-1.5,1.2-2.7,1.8-3.8,1.8c-2.1,0-3.4-0.1-3.8-0.2
			c-0.1-0.1-0.2-0.4-0.2-0.8c-0.1,2.4-0.5,4.1-1,5h-1c-0.1,1.1-0.7,2.5-1.6,4.2c-0.8,1.2-1.5,2.1-2.2,2.6h3.8c0.7,3.7,0.1,6-1.6,6.6
			c-2.8,0.7-5.2,1.4-7.2,2.2c-0.4-0.5-0.8-1-1.2-1.4c-1.6,1.6-3.5,2.4-5.6,2.4c-2-0.7-3.6-1-4.8-1v-3c0.5,0,0.8-0.3,0.8-0.8
			c-2.5-1.2-3.8-2.2-3.8-3c0-0.1,0.4-0.8,1.2-2c0.8-0.9,1.4-1.6,1.8-2c-2,0-3-0.8-3-2.4c0-0.1,1-1.9,3-5.4c-2-0.7-3.3-1-4-1
			c0.7-1.9,1-3.1,1-3.8h-4c1.5,1.3,1.7,3.3,0.6,5.8c-1.6,3.1-2.4,4.8-2.4,5c0.7,0,1.3,0.3,1.8,0.8v12.9h-0.8c0.4,0,1,0.1,1.8,0.4
			c1.3,0.7,2,1.5,2,2.6c0,0.8-0.3,1.7-1,2.8c-0.8,1.3-1.7,2-2.8,2c-1.1,0-1.9-0.5-2.6-1.4c-0.7-1.1-1.3-1.6-1.8-1.6
			c-0.9,0-1.5,0.3-1.8,1c-0.3,0.7-0.9,1-1.8,1c-0.4,0-0.9,0-1.4,0c-2,3.3-3.9,5-5.8,5c-0.7,0-1.3,0.1-2,0.4
			c-0.7,0.3-2.1,0.4-4.4,0.4c0-0.3-0.1-0.5-0.4-0.6l-0.6-0.2v-6c-0.9,1.2-2.5,2.5-4.8,4c-2.3,1.3-3.9,2-5,2c-2.5,0-5.5-1.7-8.8-5
			C353,95.1,351.7,93.2,351.1,91.6z M630.9,97.2c-0.4,0.7-0.9,1.3-1.6,1.8c-2,1.5-4.1,2.2-6.2,2.2c-2.4,0-3.9-0.1-4.6-0.4
			c-1.7-0.5-2.5-2.1-2.2-4.6c-0.9,1.3-1.9,2-3,2c-4.7,0-6.7-2.3-6-6.8c-1.5,0.5-2.9-0.2-4.2-2.2c-1.2-2.1-1.7-4.7-1.4-7.6
			c-1.7,0.8-3.4,1.1-5,0.8c0,0.1,0,0.3,0,0.6c-1.6,7.6-4.4,11.4-8.2,11.4c-1.1,0-1.7-0.2-1.8-0.6c-0.3-0.3-0.5-0.4-0.8-0.4v-3
			c-0.5,0.3-1.5,1.3-2.8,3c-1.2,1.2-2,1.8-2.4,1.8c-1.1,0-1.7,0-1.8,0c-0.1-0.1-0.3-0.3-0.4-0.6c-0.7,1.1-1.4,2.3-2.2,3.6l-4-3.8
			c-0.1,0.5-0.8,1.5-2,2.8c-1.1,1.3-2,2-2.8,2c-1.7,0-3.1-0.7-4.2-2.2c-0.5-0.5-0.8-1.1-0.8-1.8c-2.4,2-5,3-7.8,3
			c-3.2-0.7-5.5-1-6.8-1v-3.8h0.2c0.5,0,0.8-0.3,0.8-1c-0.4,0.1-0.7,0.3-1,0.4c-1.6,0.5-3.2,0.4-4.8-0.4c0-2,0.4-3.7,1.2-5
			c0.1-0.3,0.3-0.6,0.6-1c-0.1,0-0.3,0.3-0.6,0.8c-0.7,0.5-1.4,1.3-2.2,2.2c-1.2,1.3-2.7,2-4.4,2c-1.1,0-1.8-0.2-2.2-0.6
			c-0.5-0.5-0.9-1-1.2-1.4c0.3-0.3,0.7-0.5,1.2-0.8c-2.8-0.1-4.2-1.1-4.2-3c0-1.1,0.1-1.7,0.4-2c0.4-0.5,0.6-0.9,0.6-1h2
			c0-0.1,0-0.3,0-0.6c0-1.6,0.9-3.3,2.8-5.2c0.4-0.4,0.7-0.7,0.8-0.8c1.6-1.5,3-2.2,4.2-2.2c0.7,0,2.3,1,4.8,3c0.7-0.7,2-1.3,4-2
			c2.7,0.4,5,0.6,6.8,0.6l1,0.4c0.7,0.3,1,1.4,1,3.4c0,1.9-0.5,3.1-1.4,3.8c-1.1,0.5-1.9,1.1-2.6,1.8v2c2.7-2.7,6.3-5.6,10.8-8.6
			c4.7-3.1,7.7-4.6,9-4.6c2.7,0,5.2,0.9,7.4,2.6c0.1-1.3,0.5-2.9,1-4.8c1.2-5.2,1.8-9.5,1.8-12.9h9.4v5.6c1.7-2.9,3.1-4.6,4-5
			c0.5-0.4,2-0.6,4.4-0.6c4.3,0,7.8,1.3,10.4,3.8c2.4,2.3,3.6,5,3.6,8.2c0,2.1-0.3,3.7-1,4.6c-1.1,0.7-1.9,1.3-2.6,2
			c2.4,0.1,5,1.2,7.6,3.2c2.4,1.6,3.6,3.1,3.6,4.4c0,2-0.4,3.6-1.2,4.8c-0.1,0.3-0.9,1.2-2.4,2.8c3.2-0.5,6.2,0.9,9,4.4
			C630.6,96.9,630.7,97.1,630.9,97.2z M573.8,536.6l37-365.3h17.9l-42.2,365.3H573.8z M526.8,536.6l16.3-365.3h36.6l-27.5,365.3
			H526.8z M474.8,536.6l-6-365.3h38l-5.4,365.3H474.8z M429.9,536.6l-25.3-365.3h29.1l16.5,365.3H429.9z M376.2,171.3l33.9,365.3
			h-12.9l-39.2-365.3H376.2z M582.7,76.1c-0.5,2.9-0.8,5.2-0.8,6.6h1.8v-5.6C583.3,76.8,582.9,76.5,582.7,76.1z"/>
		<polygon class="st3" points="506.8,171.3 468.8,171.3 433.7,171.3 404.5,171.3 376.2,171.3 358.2,171.3 348.3,171.3 329.4,171.3 
			329.4,107.2 346.7,107.2 634.3,107.2 653.2,107.2 653.2,171.3 628.7,171.3 610.8,171.3 579.7,171.3 543.1,171.3 		"/>
		<path class="st4" d="M634.3,107.2H346.7c-0.3-0.9-0.4-1.8-0.4-2.6c0-5.4,1.6-9.7,4.8-13.1c0.5,1.6,1.9,3.5,4,5.6
			c3.3,3.3,6.3,5,8.8,5c1.1,0,2.7-0.7,5-2c2.3-1.5,3.9-2.8,4.8-4v6l0.6,0.2c0.3,0.1,0.4,0.3,0.4,0.6c2.3,0,3.7-0.1,4.4-0.4
			c0.7-0.3,1.3-0.4,2-0.4c1.9,0,3.8-1.7,5.8-5c0.5,0,1,0,1.4,0c0.9,0,1.5-0.3,1.8-1c0.3-0.7,0.9-1,1.8-1c0.5,0,1.1,0.5,1.8,1.6
			c0.7,0.9,1.5,1.4,2.6,1.4c1.1,0,2-0.7,2.8-2c0.7-1.1,1-2,1-2.8c0-1.1-0.7-1.9-2-2.6c-0.8-0.3-1.4-0.4-1.8-0.4h0.8V77.5
			c-0.5-0.5-1.1-0.8-1.8-0.8c0-0.3,0.8-1.9,2.4-5c1.1-2.5,0.9-4.5-0.6-5.8h4c0,0.7-0.3,1.9-1,3.8c0.7,0,2,0.3,4,1
			c-2,3.5-3,5.3-3,5.4c0,1.6,1,2.4,3,2.4c-0.4,0.4-1,1.1-1.8,2c-0.8,1.2-1.2,1.9-1.2,2c0,0.8,1.3,1.8,3.8,3c0,0.5-0.3,0.8-0.8,0.8v3
			c1.2,0,2.8,0.3,4.8,1c2.1,0,4-0.8,5.6-2.4c0.4,0.4,0.8,0.9,1.2,1.4c2-0.8,4.4-1.5,7.2-2.2c1.7-0.7,2.3-2.9,1.6-6.6H421
			c0.7-0.5,1.4-1.4,2.2-2.6c0.9-1.7,1.5-3.1,1.6-4.2h1c0.5-0.9,0.9-2.6,1-5c0,0.4,0.1,0.7,0.2,0.8c0.4,0.1,1.7,0.2,3.8,0.2
			c1.1,0,2.3-0.6,3.8-1.8v1.8c0.1,0,0.5,0.2,1,0.6c0.3,0.3,0.9,0.4,2,0.4c0.8,0,1.3-0.1,1.6-0.2c-1.5,2.3-2,4.6-1.6,7
			c1.2,0,2.1-0.3,2.8-0.8c-0.3,0.5-1.2,2-2.8,4.4c-1.3,1.7-2,3.2-2,4.4c0,2,1.1,2.9,3.2,2.8c1.1,0,2.3-0.3,3.6-1h1l-2,2v2
			c0.5,0.5,0.9,0.9,1,1c0.1,0,0.8,0,2,0c0.8,0,2.3-0.7,4.6-2.2c1.2-0.7,2.3-1.3,3.2-2v2.2c3.9-0.9,5.8-3.2,5.8-6.8
			c0-1.1-0.1-1.7-0.4-2h-0.6c0.7-3.2,1-5.5,1-6.8c-0.4,0-0.8,0.1-1.2,0.2c0.1-0.5,0.2-1.3,0.2-2.2c0-0.9-0.9-1.9-2.8-3h2
			c0.5-0.9,0.8-2.2,0.8-3.8c0-1.1-0.3-2.1-0.8-3c0.9,0.1,1.9,0.5,2.8,1v4.8c0.1,0,0.4,0.2,0.8,0.6c0.1,0.3,0.7,0.4,1.6,0.4
			c1.7,0,3.2-0.6,4.4-1.8v6.8c0.3,0,0.7,0.1,1.4,0.4c0.4,0.4,1.1,0.6,2.2,0.6c0.9,0,2.7-0.7,5.2-2c-1.7,1.3-3,2.3-3.8,3
			c-1.3,0.9-2,2.1-2,3.4c0,2.5,1.9,3.7,5.8,3.4c-2.4,2.4-3.7,4.7-3.8,6.8c0.7,0.7,1.9,1,3.8,1c2,0,4.4-0.7,7-2
			c-1.2,1.2-2.1,2.1-2.8,2.8c-0.9,1.1-1,2.4-0.2,4c0.1,0,0.3,0.2,0.4,0.6c0,0.3,0.5,0.4,1.6,0.4c0.3,0,1.2-0.5,2.8-1.6
			c1.9-1.2,2.9-1.9,3-2.2h1c-0.7,0.7-1,1.9-1,3.8v0.6c0.3,0.3,0.9,0.4,2,0.4c1.9,0,5.8-2.9,11.6-8.8c0.7-0.3,1.3-0.7,2-1.4
			c1.3-1.2,2-2.5,2-4c0-1.3-0.1-2.1-0.2-2.4c-0.4-0.5-1.3-1.2-2.8-2c0-0.7,1-1,3-1c-1.2-3.2-3.3-4.8-6.4-4.8h2.4l0.4-0.6
			c0.1-0.3,0.3-0.4,0.6-0.4l-2.4-4.8c1.6,0,2.7-0.3,3.4-1c0.1-1.7,0-3.1-0.4-4c0.1,0,0.3,0,0.4,0c1.5,0,2.9-0.7,4.2-2
			c0.7-0.4,1.1-0.8,1.2-1.2c0.1,0.5,0.5,1.3,1,2.2c0.5,1.3,1.7,2,3.4,2c2.3,0,4.1-0.7,5.4-2.2c1.3-1.3,2.8-3.9,4.4-7.6
			c0,4.5,1.3,6.8,3.8,6.8c1.7,0,3.1-0.7,4-2.2l0.2-0.2c0.1-0.1,0.3-0.3,0.6-0.4c0.3,0,0.7,0,1.2,0c1.7,0,4.4-3.3,7.8-10
			c0.5,0.1,1.2,0.2,2,0.2c3.9-5.2,5.8-9.2,5.8-11.8c0.3,1.3,0.8,2.7,1.6,4c0.9,1.3,1.7,2,2.2,2c0.4,0,1.3-0.7,2.8-2
			c1.6-1.3,2.7-2.3,3.2-3c0,1.3,0.8,2,2.4,2c0.9,0,1.9-1.1,3-3.4c0.1,0.8,0.2,1.7,0.2,2.6c0,4.1-2.5,8.1-7.4,11.8
			c-4.4,3.1-7.6,4.5-9.4,4.2c0.7,0.4,2,2.1,4,5c2.1,3.3,3.2,5.1,3.2,5.2c0,3.7-3.7,6.6-11.2,8.6c1.2,0,3.5,0.3,6.8,1
			c0.5,0.1,1.1,0.2,1.6,0.2c-2,0.7-3.3,1.3-4,2c-2.5-2-4.1-3-4.8-3c-1.2,0-2.6,0.7-4.2,2.2c-0.1,0.1-0.4,0.4-0.8,0.8
			c-1.9,1.9-2.8,3.6-2.8,5.2c0,0.3,0,0.5,0,0.6h-2c0,0.1-0.2,0.5-0.6,1c-0.3,0.3-0.4,0.9-0.4,2c0,1.9,1.4,2.9,4.2,3
			c-0.5,0.3-0.9,0.5-1.2,0.8c0.3,0.4,0.7,0.9,1.2,1.4c0.4,0.4,1.1,0.6,2.2,0.6c1.7,0,3.2-0.7,4.4-2c0.8-0.9,1.5-1.7,2.2-2.2
			c0.3-0.5,0.5-0.8,0.6-0.8c-0.3,0.4-0.5,0.7-0.6,1c-0.8,1.3-1.2,3-1.2,5c1.6,0.8,3.2,0.9,4.8,0.4c0.3-0.1,0.6-0.3,1-0.4
			c0,0.7-0.3,1-0.8,1h-0.2v3.8c1.3,0,3.6,0.3,6.8,1c2.8,0,5.4-1,7.8-3c0,0.7,0.3,1.3,0.8,1.8c1.1,1.5,2.5,2.2,4.2,2.2
			c0.8,0,1.7-0.7,2.8-2c1.2-1.3,1.9-2.3,2-2.8l4,3.8c0.8-1.3,1.5-2.5,2.2-3.6c0.1,0.3,0.3,0.5,0.4,0.6c0.1,0,0.7,0,1.8,0
			c0.4,0,1.2-0.6,2.4-1.8c1.3-1.7,2.3-2.7,2.8-3v3c0.3,0,0.5,0.1,0.8,0.4c0.1,0.4,0.7,0.6,1.8,0.6c3.9,0,6.6-3.8,8.2-11.4
			c0-0.3,0-0.5,0-0.6c1.6,0.3,3.3,0,5-0.8c-0.3,2.9,0.2,5.5,1.4,7.6c1.3,2,2.7,2.7,4.2,2.2c-0.7,4.5,1.3,6.8,6,6.8
			c1.1,0,2.1-0.7,3-2c-0.3,2.5,0.5,4.1,2.2,4.6c0.7,0.3,2.2,0.4,4.6,0.4c2.1,0,4.2-0.7,6.2-2.2c0.7-0.5,1.2-1.1,1.6-1.8
			c2.3,2.9,3.4,6,3.4,9C634.3,106.6,634.3,107,634.3,107.2z"/>
	</g>
	<path class="st5" d="M685.5,576.3l-85.1-24.7L625,384.4l60.4,12V576.3z M604.4,380.8l-23.7,212l-185.8-6.9l-44-392l156.3,143.6
		l-16.2,26.9L604.4,380.8z"/>
	<g>
		<path class="st2" d="M562,402.8l61.3,9c11.6,1.7,17.4,8.5,17.4,20.4v39.6l-23.6-2c-0.5-14.2-5.8-26.9-15.9-38.2
			c-10.7-12.1-23.8-19.4-39.1-21.9V402.8z M462.9,457.3v-47.8c-0.1-14.4,8-20.5,24.3-18.1l70.4,10.6v7.1
			c-16.3-1.8-30.5,2.2-42.5,11.8c-12.8,9.9-19.5,22.9-20.1,39L462.9,457.3z M557.7,532.2l-70.4-0.7c-16.3-0.2-24.4-7.4-24.3-21.8
			V462l32.2,2.5c0.5,16.3,7.2,30.5,20.1,42.7c12.1,11.5,26.2,17.6,42.5,18.5V532.2z M640.7,475.6V515c0,11.9-5.8,17.7-17.4,17.7
			l-61.3-0.5v-6.5c15.4-0.2,28.4-5.4,39.1-15.6c10.2-10,15.5-22.1,15.9-36.4L640.7,475.6z M562,416.9v-4
			c14.6,2.3,26.9,9.2,36.9,20.6c9.7,10.7,14.7,22.8,15.2,36.2l-4-0.3c-0.5-12.4-5.2-23.6-14.1-33.5
			C586.8,425.4,575.5,419.1,562,416.9z M557.7,412.2v4.2c-14-1.4-26.3,2.2-36.7,10.6c-10.9,8.6-16.7,19.8-17.2,33.6l-4.9-0.3
			c0.6-15.1,6.9-27.3,18.8-36.7C529.1,414.4,542.4,410.6,557.7,412.2z M557.7,419.8v5.2l4.4,0.5v-5.2c12.5,1.9,23.1,7.8,31.9,17.6
			c8.4,9.3,12.8,19.7,13.3,31.3l-5-0.4v4l5,0.3c-0.5,11.6-4.9,21.5-13.3,29.6c-8.7,8.2-19.4,12.4-31.9,12.4v-4.8l-4.4-0.2v4.9
			c-13-0.9-24.4-6-34.1-15.3c-10.1-9.9-15.4-21.3-15.9-34.2l6.5,0.4v-4.4l-6.5-0.5c0.6-12.8,5.9-23.2,15.9-31.2
			C533.3,421.9,544.6,418.6,557.7,419.8z M547.1,454.5v33.9l-3.9-0.2v16.4l32.3,1.2v-1.2l8.8,0.3v-16.2l-3.7-0.2V433l-18-2.2
			l-4.4,3.3l-3.9-0.4l-16.6,12.6v11.1l7.8-4v1.8L547.1,454.5z M499,464.8l4.9,0.3c0.5,14,6.2,26.3,17.2,36.9
			c10.4,9.9,22.6,15.3,36.7,16.2v4.3c-15.3-0.9-28.6-6.8-39.9-17.5C505.7,493.4,499.4,480,499,464.8z M610.2,473.3l4,0.3
			c-0.5,13.5-5.5,24.9-15.2,34.3c-10.1,9.6-22.4,14.5-36.9,14.6v-4.3c13.4-0.1,24.8-4.5,34.1-13.3
			C605.1,496.3,609.8,485.7,610.2,473.3z"/>
		<path class="st1" d="M666.5,448.3l-16.6-1.9v14.3l16.6,1.6V448.3z M650,412.9l16.6,2.5v-9l5.7,1v137.2h-5.7v-7l-16.6-0.1v7.2
			l-202.6,1.1v-8.8h-27v9l-11.1,0.1V364.1l11.1,1.9v11.7l27,4.2v-11.4L650,403.7V412.9z M666.5,425.7l-16.6-2.3v14.2l16.6,2V425.7z
			 M462.9,462v47.8c-0.1,14.3,8,21.6,24.3,21.8l70.4,0.7h4.4l61.3,0.5c11.6,0.1,17.4-5.8,17.4-17.7v-39.4v-3.8v-39.6
			c0-11.9-5.8-18.6-17.4-20.4l-61.3-9l-4.4-0.7l-70.4-10.6c-16.3-2.4-24.4,3.6-24.3,18.1v47.8V462z M666.5,470.1l-16.6-1.4v14.2
			l16.6,1.2V470.1z M666.5,514.9l-16.6-0.5v14.2l16.6,0.3V514.9z M650,491.8v14.3l16.6,0.6v-13.9L650,491.8z M420.3,438.7l27,2.6
			v-17.7l-27-3V438.7z M420.3,449.1v18.2l27,1.9v-17.8L420.3,449.1z M447.3,412.6v-17.7l-27-3.8v18.2L447.3,412.6z M420.3,525.5
			l27,0.3v-17.7l-27-0.8V525.5z M447.3,497.7V480l-27-1.6v18.2L447.3,497.7z"/>
		<path class="st6" d="M640.7,475.6l-23.6-1.8c-0.4,14.2-5.7,26.4-15.9,36.4c-10.7,10.2-23.8,15.4-39.1,15.6v6.5h-4.4v-6.6
			c-16.3-0.9-30.5-7-42.5-18.5c-12.9-12.2-19.6-26.4-20.1-42.7l-32.2-2.5v-4.7l32.2,2.7c0.5-16.1,7.2-29.1,20.1-39
			c12.1-9.7,26.2-13.6,42.5-11.8v-7.1l4.4,0.7v7c15.4,2.4,28.4,9.7,39.1,21.9c10.1,11.3,15.4,24.1,15.9,38.2l23.6,2V475.6z
			 M557.7,419.8c-13-1.2-24.4,2.1-34.1,10c-10,8-15.3,18.4-15.9,31.2l6.5,0.5v4.4l-6.5-0.4c0.5,12.9,5.8,24.3,15.9,34.2
			c9.7,9.3,21,14.4,34.1,15.3V510l4.4,0.2v4.8c12.5-0.1,23.1-4.2,31.9-12.4c8.4-8.1,12.8-18,13.3-29.6l-5-0.3v-4l5,0.4
			c-0.5-11.6-4.9-22-13.3-31.3c-8.7-9.8-19.4-15.7-31.9-17.6v5.2l-4.4-0.5V419.8z M557.7,412.2c-15.3-1.6-28.6,2.2-39.9,11.4
			c-11.9,9.3-18.2,21.6-18.8,36.7l4.9,0.3c0.5-13.8,6.3-25,17.2-33.6c10.4-8.5,22.6-12,36.7-10.6V412.2z M562,416.9
			c13.4,2.3,24.8,8.6,34.1,19c8.9,9.9,13.6,21,14.1,33.5l4,0.3c-0.5-13.4-5.5-25.4-15.2-36.2c-10.1-11.4-22.4-18.2-36.9-20.6V416.9z
			 M610.2,473.3c-0.4,12.4-5.1,23-14.1,31.6c-9.3,8.8-20.6,13.2-34.1,13.3v4.3c14.6-0.1,26.9-5,36.9-14.6
			c9.7-9.3,14.7-20.8,15.2-34.3L610.2,473.3z M499,464.8c0.5,15.3,6.7,28.7,18.8,40.1c11.3,10.7,24.6,16.6,39.9,17.5v-4.3
			c-14-0.9-26.3-6.3-36.7-16.2c-11-10.5-16.7-22.8-17.2-36.9L499,464.8z"/>
		<path class="st7" d="M545.7,453.4l-7.8,4v-11.1l16.6-12.6l3.9,0.4l-12.6,9.7V453.4z M575.5,504.6v1.2l-32.3-1.2v-16.4l3.9,0.2
			v-33.9l8-4.2V487l-4-0.2v16.9L575.5,504.6z"/>
		<polygon class="st3" points="575.5,504.6 551.1,503.7 551.1,486.8 555.1,487 555.1,450.3 547.1,454.5 545.7,455.2 545.7,453.4 
			545.7,443.8 558.3,434.1 562.6,430.8 580.6,433 580.6,488.5 584.3,488.7 584.3,504.9 		"/>
	</g>
	<g>
		<g>
			<path class="st1" d="M75.5,266.6l325.7,188.1l21.7-37.6c13.8-24,8.5-43.1-16-57.2L154.8,214.3c-24.5-14.2-43.7-9.3-57.6,14.7
				L75.5,266.6z M48.8,313l-14.2,24.7l68.1,39.3l14.2-24.7L48.8,313z M51.5,308.2l107.7,62.2l21.2-36.8L72.8,271.4L51.5,308.2z
				 M31.8,342.4l-13,22.5l68.1,39.3l13-22.5L31.8,342.4z M341.7,557.7L16,369.6l-8.4,14.6c-2.1,3.6-3.7,7.1-4.9,10.4
				c-0.7,1.8-1.2,3.7-1.6,5.4c-3.7,16.6,3.8,30.4,22.6,41.2l252.1,145.6c18.8,10.9,34.5,10.5,47-1c1.3-1.2,2.6-2.6,3.9-4.1
				c2.3-2.7,4.5-5.9,6.6-9.5L341.7,557.7z M398.5,459.4l-108.3-62.6l-21.2,36.8l108.3,62.6L398.5,459.4z M344.5,552.9l30-51.9
				L122.4,355.4l-30,51.9L344.5,552.9z M261.4,429.4l21.2-36.8l-94-54.3l-21.2,36.8L261.4,429.4z"/>
			<path class="st6" d="M31.8,342.4l68.1,39.3l-13,22.5l-68.1-39.3l-2.8,4.8l325.7,188.1l2.8-4.8L92.4,407.4l30-51.9L374.5,501
				l2.8-4.8l-108.3-62.6l21.2-36.8l108.3,62.6l2.8-4.8L75.5,266.6l-2.8,4.8l107.7,62.2l-21.2,36.8L51.5,308.2l-2.8,4.8l68.1,39.3
				L102.7,377l-68.1-39.3L31.8,342.4z M261.4,429.4l-94-54.3l21.2-36.8l94,54.3L261.4,429.4z"/>
		</g>
		<g>
			<path class="st2" d="M141.8,260.3l-12.4-62.6l-15.3-8.9l-24,41.6L141.8,260.3z M162.8,217l12.4,62.6l12.3,7.1L175,224.1
				L162.8,217z M208.4,243.4l12.4,62.6l12.3,7.1l-12.4-62.6L208.4,243.4z M254.1,269.8l12.4,62.6l10.9,6.3L265,276.1L254.1,269.8z
				 M298.3,295.3l12.4,62.6L428,425.6l24-41.6L298.3,295.3z"/>
			<path class="st1" d="M175.1,279.6L162.8,217l-33.4-19.3l12.4,62.6L175.1,279.6z M175,224.1l12.4,62.6l33.4,19.3l-12.4-62.6
				L175,224.1z M266.4,332.3l-12.4-62.6l-33.4-19.3l12.4,62.6L266.4,332.3z M265,276.1l12.4,62.6l33.4,19.3l-12.4-62.6L265,276.1z"
				/>
		</g>
		<g>
			<path class="st2" d="M245,96.1l-63.8,1.2l-11.9-13.1l35.5-32.3L245,96.1z M207.1,125.9l63.8-1.2l9.5,10.5l-63.8,1.2L207.1,125.9z
				 M242.6,164.9l63.8-1.2l9.5,10.5l-63.8,1.2L242.6,164.9z M376.4,240.6l91.2,100.2L432,373.2L312.5,241.8L376.4,240.6z
				 M278.1,203.9l63.8-1.2l8.5,9.3l-63.8,1.2L278.1,203.9z"/>
			<path class="st1" d="M181.1,97.4l63.8-1.2l26,28.5l-63.8,1.2L181.1,97.4z M216.6,136.4l63.8-1.2l26,28.5l-63.8,1.2L216.6,136.4z
				 M278.1,203.9l-26-28.5l63.8-1.2l26,28.5L278.1,203.9z M376.4,240.6l-63.8,1.2l-26-28.5l63.8-1.2L376.4,240.6z"/>
		</g>
		<g>
			<path class="st2" d="M443.2,337.7c-3.4,0.9-6,2.9-7.8,5.9c-1.7,3-2.1,6.2-1.1,9.5c0.8,3.4,2.7,5.9,5.7,7.7s6.2,2.1,9.7,1.2
				c3.3-0.9,5.8-2.8,7.5-5.8c1.7-3,2.2-6.2,1.4-9.6c-1-3.3-3-5.9-6-7.6C449.6,337.2,446.4,336.8,443.2,337.7z M421.1,384.7
				c2.2-0.7,4.3-0.4,6.4,0.8c2,1.2,3.3,2.9,3.9,5.2c0.6,2.3,0.3,4.4-0.8,6.4c-1.2,2.1-2.9,3.4-5.2,3.9c-2.3,0.7-4.5,0.5-6.5-0.7
				c-2.1-1.2-3.4-3-3.8-5.3c-0.8-2.3-0.5-4.4,0.7-6.5C416.9,386.6,418.7,385.3,421.1,384.7z M448.5,358c-2.3,0.7-4.5,0.5-6.5-0.7
				c-2.1-1.2-3.4-3-3.8-5.3c-0.8-2.3-0.5-4.4,0.7-6.5c1.2-2,2.9-3.3,5.3-3.8c2.2-0.7,4.3-0.4,6.4,0.8c2,1.2,3.3,2.9,3.9,5.2
				c0.6,2.3,0.3,4.4-0.8,6.4C452.4,356.2,450.7,357.5,448.5,358z M420.1,380.7c-3.4,0.9-6,2.9-7.8,5.9c-1.7,3-2.1,6.2-1.1,9.5
				c0.8,3.4,2.7,5.9,5.7,7.7c3,1.7,6.2,2.1,9.7,1.2c3.3-0.9,5.8-2.8,7.5-5.8c1.7-3,2.2-6.2,1.4-9.6c-1-3.3-3-5.9-6-7.6
				C426.6,380.3,423.4,379.8,420.1,380.7z M376.9,359.2c0.6,2.3,0.3,4.4-0.8,6.4c-1.2,2.1-2.9,3.4-5.2,3.9c-2.3,0.7-4.5,0.5-6.5-0.7
				c-2.1-1.2-3.4-3-3.8-5.3c-0.8-2.3-0.5-4.4,0.7-6.5c1.2-2,2.9-3.3,5.3-3.8c2.2-0.7,4.3-0.4,6.4,0.8
				C375,355.2,376.3,356.9,376.9,359.2z M379.7,367.7c1.7-3,2.2-6.2,1.4-9.6c-1-3.3-3-5.9-6-7.6c-3-1.7-6.1-2.2-9.4-1.3
				c-3.4,0.9-6,2.9-7.8,5.9c-1.7,3-2.1,6.2-1.1,9.5c0.8,3.4,2.7,5.9,5.7,7.7c3,1.7,6.2,2.1,9.7,1.2
				C375.4,372.7,377.9,370.7,379.7,367.7z"/>
			<path class="st3" d="M443.2,337.7c3.3-0.9,6.4-0.5,9.4,1.3c3,1.7,5,4.3,6,7.6c0.8,3.4,0.4,6.6-1.4,9.6c-1.7,3-4.2,4.9-7.5,5.8
				c-3.4,0.9-6.7,0.5-9.7-1.2s-4.9-4.3-5.7-7.7c-1-3.3-0.6-6.5,1.1-9.5C437.1,340.6,439.7,338.6,443.2,337.7z M420.1,380.7
				c3.3-0.9,6.4-0.5,9.4,1.3c3,1.7,5,4.3,6,7.6c0.8,3.4,0.4,6.6-1.4,9.6c-1.7,3-4.2,4.9-7.5,5.8c-3.4,0.9-6.7,0.5-9.7-1.2
				c-3-1.7-4.9-4.3-5.7-7.7c-1-3.3-0.6-6.5,1.1-9.5C414.1,383.6,416.7,381.6,420.1,380.7z M379.7,367.7c-1.7,3-4.2,4.9-7.5,5.8
				c-3.4,0.9-6.7,0.5-9.7-1.2c-3-1.7-4.9-4.3-5.7-7.7c-1-3.3-0.6-6.5,1.1-9.5c1.7-3,4.3-5,7.8-5.9c3.3-0.9,6.4-0.5,9.4,1.3
				c3,1.7,5,4.3,6,7.6C381.8,361.5,381.4,364.7,379.7,367.7z M428,425.6l51.1-88.6c-60-43.1-109.8-32.5-149.3,31.9L428,425.6z"/>
			<path class="st1" d="M448.5,358c2.2-0.5,4-1.8,5.2-3.9c1.2-2,1.4-4.1,0.8-6.4c-0.6-2.3-1.9-4-3.9-5.2c-2.1-1.2-4.2-1.5-6.4-0.8
				c-2.4,0.6-4.2,1.8-5.3,3.8c-1.2,2.1-1.4,4.3-0.7,6.5c0.5,2.3,1.7,4.1,3.8,5.3C444,358.5,446.1,358.7,448.5,358z M421.1,384.7
				c-2.4,0.6-4.2,1.8-5.3,3.8c-1.2,2.1-1.4,4.3-0.7,6.5c0.5,2.3,1.7,4.1,3.8,5.3c2,1.2,4.2,1.4,6.5,0.7c2.2-0.5,4-1.8,5.2-3.9
				c1.2-2,1.4-4.1,0.8-6.4c-0.6-2.3-1.9-4-3.9-5.2C425.4,384.3,423.3,384.1,421.1,384.7z M376.9,359.2c-0.6-2.3-1.9-4-3.9-5.2
				c-2.1-1.2-4.2-1.5-6.4-0.8c-2.4,0.6-4.2,1.8-5.3,3.8c-1.2,2.1-1.4,4.3-0.7,6.5c0.5,2.3,1.7,4.1,3.8,5.3c2,1.2,4.2,1.4,6.5,0.7
				c2.2-0.5,4-1.8,5.2-3.9C377.3,363.7,377.5,361.5,376.9,359.2z"/>
		</g>
	</g>
	<path class="st5" d="M177.2,438.6c-3.5-5.6-6.5-10.2-9-13.8c9-6.8,20.8-15.5,35.1-26c19.6-14.3,38.1-27.5,55.4-39.6
		c9,11.5,26.1,33.9,51.2,67.4c-8.4-29.4-14.3-50.6-17.8-63.5c9.4-2.6,25.7-6.9,48.9-13c15.7-4,37.7-9.6,66-16.9
		c4,16.7,11.3,47.7,21.8,93c12.4,51.4,23.3,93.5,32.9,126.4c-45,2.7-80,4.7-104.8,6.1c-43,2.6-71.8,5.1-86.4,7.4
		C212.2,487.2,181.1,444.6,177.2,438.6z"/>
	<g>
		<path class="st2" d="M253.4,377.7l130.9,167.4l-1.9,1.5c-0.3-0.2-0.7-0.3-1.1-0.3c-0.9,0-1.7,0.2-2.4,0.8
			c-0.7,0.5-1.1,1.2-1.2,2.1c-0.1,0.4,0,0.8,0,1.2l-1.3,1c-0.3-0.2-0.7-0.3-1.1-0.3c-0.9,0-1.7,0.2-2.4,0.8
			c-0.7,0.5-1.1,1.2-1.2,2.1c-0.1,0.4,0,0.8,0,1.2l-1.9,1.5c-0.3-0.2-0.7-0.3-1.1-0.3c-0.9,0-1.7,0.2-2.4,0.8
			c-0.7,0.5-1.1,1.2-1.2,2.1c-0.1,0.4,0,0.8,0,1.2l-1.6,1.2c-0.3-0.2-0.7-0.3-1.1-0.3c-0.9,0-1.7,0.2-2.4,0.8
			c-0.7,0.5-1.1,1.2-1.2,2.1c-0.1,0.4,0,0.8,0,1.2l-1.8,1.4c-0.3-0.2-0.7-0.3-1.1-0.3c-0.9,0-1.7,0.2-2.4,0.8
			c-0.7,0.5-1.1,1.2-1.2,2.1c0,0.4,0,0.8,0,1.2l-1.6,1.2c-0.3-0.2-0.7-0.3-1.1-0.3c-0.9,0-1.7,0.2-2.4,0.8c-0.7,0.5-1.1,1.2-1.2,2.1
			c0,0.4,0,0.8,0,1.2l-2.1,1.7c-0.3-0.2-0.7-0.3-1.1-0.3c-0.9,0-1.7,0.2-2.4,0.8c-0.7,0.5-1.1,1.2-1.2,2.1c-0.1,0.4,0,0.8,0,1.2
			l-1.3,1c-0.3-0.2-0.7-0.3-1.1-0.3c-0.9,0-1.7,0.2-2.4,0.8c-0.7,0.5-1.1,1.2-1.2,2.1c-0.1,0.4,0,0.8,0,1.2l-1.8,1.4
			c-0.3-0.2-0.7-0.3-1.1-0.3c-0.9,0-1.7,0.2-2.4,0.8c-0.7,0.5-1.1,1.2-1.2,2.1c-0.1,0.4,0,0.8,0,1.2l-1.6,1.2
			c-0.3-0.2-0.7-0.3-1.1-0.3c-0.9,0-1.7,0.2-2.4,0.8c-0.7,0.5-1.1,1.2-1.2,2.1c-0.1,0.4,0,0.8,0,1.2l-1.8,1.4
			c-0.3-0.2-0.7-0.3-1.1-0.3c-0.9,0-1.7,0.2-2.4,0.8c-0.7,0.5-1.1,1.2-1.2,2.1c-0.1,0.4,0,0.8,0,1.2l-1.6,1.2
			c-0.3-0.2-0.7-0.3-1.1-0.3c-0.9,0-1.7,0.2-2.4,0.8c-0.7,0.5-1.1,1.2-1.2,2.1c-0.1,0.4,0,0.8,0,1.2l-1,0.8
			c-0.3-0.2-0.7-0.3-1.1-0.3c-0.9,0-1.7,0.2-2.4,0.8c-0.7,0.5-1.1,1.2-1.2,2.1c-0.1,0.4,0,0.8,0,1.2l-1.1,0.9L168.9,443.7
			L253.4,377.7z"/>
		<g>
			<path class="st1" d="M243.2,398c6.3-3.5,12-1.9,17.1,4.5l96.2,123c5.1,6.5,5.2,12.4,0.3,17.7c-0.8,0.8-1.7,1.6-2.7,2.4
				c-1-0.8-2.3-1.4-3.6-1.7c-2.5-0.7-5.4-0.7-9-0.1c-0.8,0.2-1.6,0.4-2.4,0.5c0.5,0.9,1.1,1.8,1.8,2.7c0.7,0.9,1.5,1.8,2.2,2.5
				c0.9,0.8,1.9,1.6,2.9,2.3l-33.6,26.3c-0.6-1-1.2-2-2-3l0-0.1c-1.2-1.5-2.5-2.8-4-3.9c0,0-0.1,0.1-0.1,0.1
				c-1.5,3.3-2.3,6.2-2.2,8.8c0,1.4,0.3,2.7,0.8,3.9l-4,3.2c-7.5,5.9-14.2,5.1-20.1-2.5l-96.2-123c-5.9-7.5-5.1-14.2,2.5-20.1l4-3.2
				c1.1,0.8,2.3,1.4,3.6,1.7c2.5,0.7,5.5,0.6,9.1,0c0.1,0,0.1,0,0.2,0c-0.7-1.7-1.6-3.3-2.8-4.8l0-0.1c-0.7-1-1.6-1.8-2.4-2.6
				l33.6-26.3c0.4,1.2,0.9,2.3,1.5,3.4c0.5,0.9,1.2,1.9,1.9,2.8c0.7,0.9,1.4,1.7,2.2,2.4c0.4-0.7,0.7-1.4,1.1-2.2
				c1.5-3.3,2.2-6.2,2.1-8.7c0-1.4-0.3-2.7-0.8-4C241.2,399.3,242.2,398.6,243.2,398z M269.1,416.8c-0.5,0.5-1.1,1-1.7,1.4
				c-5.3,4.1-11.2,5.8-17.8,5c-4.4-0.5-8.4-2.1-11.7-4.7c-3.2,4.6-7.4,9-12.7,13.2c-2.4,1.9-4.7,3.5-7.1,4.9c-0.8,0.5-1.6,1-2.4,1.4
				c-2.9,1.6-5.8,2.8-8.7,3.7c1,3.1,1.3,6.4,0.9,9.9c-0.8,6.6-3.9,12-9.2,16.1c-1.6,1.3-3.3,2.3-5,3.1l80.4,102.8
				c1.2-1.5,2.6-2.9,4.2-4.1c5.3-4.1,11.2-5.8,17.8-5c3.5,0.4,6.6,1.5,9.4,3.2c1.6-2.6,3.5-5.1,5.7-7.5c0.6-0.7,1.2-1.3,1.9-2
				c1.9-1.9,4-3.8,6.4-5.7c5.3-4.1,10.6-7.2,15.9-9.2c-1.7-3.9-2.2-8.1-1.7-12.5c0.8-6.6,3.8-11.9,9.1-16c0.6-0.5,1.2-0.9,1.8-1.3
				L269.1,416.8z M267.5,414.8l-6.8-8.7c-4.9-6.3-10.5-7.7-16.6-4.2c0.2,3-0.6,6.4-2.4,10.3c-0.7,1.4-1.4,2.8-2.3,4.2
				c3.1,2.3,6.6,3.7,10.7,4.3c5.9,0.7,11.1-0.8,15.8-4.5C266.5,415.7,267,415.3,267.5,414.8z M255.3,426.5l75.5,96.5l-2.9,2.3
				l-75.5-96.5L255.3,426.5z M236.3,417.2c-1-0.9-1.9-1.9-2.8-3.1c-0.7-0.9-1.4-1.9-1.9-2.8l-28.7,22.4l0,0.1
				c1.4,1.8,2.6,3.8,3.4,5.8c2.7-0.7,5.4-1.8,8.1-3.3c0.8-0.4,1.6-0.8,2.4-1.3c2.4-1.3,4.8-2.9,7.2-4.8
				C229.3,426.1,233.4,421.8,236.3,417.2z M190.2,443.7c-7.3,5.7-8.1,12.1-2.4,19.3l4.4,5.6c1.8-0.7,3.5-1.7,5.2-3
				c4.7-3.7,7.4-8.4,8.2-14.3c0.3-3.1,0.1-6.1-0.8-8.9c-0.8,0.2-1.5,0.4-2.4,0.5c-4.4,0.9-8.1,0.8-11-0.1L190.2,443.7z M212.6,459.8
				l75.5,96.5l-2.9,2.3l-75.5-96.5L212.6,459.8z M346.3,515.6c-0.6,0.3-1.2,0.7-1.8,1.2c-4.7,3.7-7.4,8.4-8.2,14.3
				c-0.5,4.1,0.1,7.9,1.6,11.4c1.6-0.5,3.1-0.9,4.6-1.2c4.2-0.8,7.8-0.7,10.6,0.2c4.9-5.1,4.8-10.8-0.1-17.1L346.3,515.6z
				 M336.5,545.2c-5.1,1.7-10.3,4.6-15.6,8.7c-2.4,1.9-4.5,3.8-6.4,5.8c-0.7,0.6-1.3,1.3-1.9,2c-2,2.3-3.8,4.6-5.1,7.1
				c1.8,1.3,3.3,2.9,4.8,4.7l0,0.1l28.7-22.4c-0.8-0.8-1.5-1.6-2.2-2.5C337.9,547.6,337.1,546.4,336.5,545.2z M303.3,572
				c0.3-0.8,0.7-1.5,1.1-2.2c-2.5-1.6-5.3-2.5-8.4-3c-5.9-0.7-11.2,0.9-15.9,4.5c-1.7,1.3-3,2.7-4.2,4.3l4.4,5.6
				c5.6,7.2,12.1,8,19.4,2.3l1.1-0.9C300.6,579.7,301.4,576.1,303.3,572z"/>
			<path class="st6" d="M269.1,416.8l75.6,96.7c-0.6,0.4-1.2,0.8-1.8,1.3c-5.3,4.1-8.3,9.5-9.1,16c-0.5,4.5,0,8.6,1.7,12.5
				c-5.3,2-10.6,5-15.9,9.2c-2.4,1.9-4.5,3.8-6.4,5.7c-0.7,0.6-1.3,1.3-1.9,2c-2.2,2.4-4.1,4.9-5.7,7.5c-2.8-1.7-5.9-2.8-9.4-3.2
				c-6.6-0.8-12.5,0.9-17.8,5c-1.6,1.3-3,2.6-4.2,4.1l-80.4-102.8c1.7-0.8,3.4-1.8,5-3.1c5.3-4.1,8.3-9.5,9.2-16.1
				c0.4-3.5,0.1-6.8-0.9-9.9c2.9-0.9,5.8-2.2,8.7-3.7c0.8-0.4,1.6-0.9,2.4-1.4c2.3-1.4,4.7-3,7.1-4.9c5.3-4.1,9.5-8.5,12.7-13.2
				c3.4,2.6,7.3,4.1,11.7,4.7c6.6,0.8,12.5-0.9,17.8-5C268,417.8,268.6,417.3,269.1,416.8z M255.3,426.5l-2.9,2.3l75.5,96.5l2.9-2.3
				L255.3,426.5z M267.5,414.8c-0.5,0.5-1,1-1.6,1.4c-4.7,3.7-10,5.2-15.8,4.5c-4.1-0.5-7.6-2-10.7-4.3c0.9-1.4,1.6-2.8,2.3-4.2
				c1.8-3.9,2.6-7.4,2.4-10.3c6.1-3.5,11.6-2.1,16.6,4.2L267.5,414.8z M236.3,417.2c-2.9,4.6-7,8.9-12.2,13
				c-2.4,1.9-4.8,3.5-7.2,4.8c-0.8,0.5-1.6,0.9-2.4,1.3c-2.7,1.4-5.4,2.5-8.1,3.3c-0.8-2-2-3.9-3.4-5.8l0-0.1l28.7-22.4
				c0.5,0.9,1.2,1.9,1.9,2.8C234.4,415.3,235.4,416.3,236.3,417.2z M212.6,459.8l-2.9,2.3l75.5,96.5l2.9-2.3L212.6,459.8z
				 M190.2,443.7l1.2-0.9c2.9,0.9,6.6,1,11,0.1c0.8-0.1,1.6-0.3,2.4-0.5c0.9,2.8,1.2,5.8,0.8,8.9c-0.8,5.9-3.5,10.7-8.2,14.3
				c-1.7,1.3-3.4,2.3-5.2,3l-4.4-5.6C182.1,455.9,182.9,449.4,190.2,443.7z M346.3,515.6l6.8,8.7c4.9,6.3,5,12,0.1,17.1
				c-2.8-0.9-6.4-0.9-10.6-0.2c-1.5,0.3-3,0.7-4.6,1.2c-1.5-3.5-2-7.3-1.6-11.4c0.7-5.8,3.5-10.6,8.2-14.3
				C345.2,516.3,345.7,515.9,346.3,515.6z M336.5,545.2c0.7,1.2,1.4,2.3,2.3,3.5c0.7,0.9,1.5,1.8,2.2,2.5l-28.7,22.4l0-0.1
				c-1.4-1.8-3-3.4-4.8-4.7c1.4-2.4,3.1-4.8,5.1-7.1c0.6-0.7,1.2-1.4,1.9-2c1.8-2,4-3.9,6.4-5.8C326.1,549.9,331.3,547,336.5,545.2z
				 M303.3,572c-1.9,4.1-2.7,7.6-2.5,10.7l-1.1,0.9c-7.3,5.7-13.7,4.9-19.4-2.3l-4.4-5.6c1.1-1.6,2.5-3,4.2-4.3
				c4.7-3.7,10-5.2,15.9-4.5c3.1,0.4,5.9,1.4,8.4,3C304,570.6,303.6,571.3,303.3,572z"/>
		</g>
		<polygon class="st2" points="332.7,563.8 337.3,569.6 330.2,567.6 326,574.2 325.6,566.3 317.7,564 325.4,561.2 325.1,554 
			329.5,559.7 337.1,556.9 		"/>
		<polygon class="st2" points="237.1,431.2 241.7,437.1 234.6,435.1 230.4,441.6 230,433.7 222.1,431.5 229.8,428.7 229.5,421.4 
			233.9,427.2 241.5,424.4 		"/>
		<path class="st2" d="M270,426l3.1-1.1l-1.8,2.9l1.8,2.4l-2.9-0.8l-1.7,2.7l-0.1-3.2l-3.3-0.9l3.2-1.1l-0.1-3L270,426z M286,441.5
			l-1.8,2.9l1.8,2.4l-2.9-0.8l-1.7,2.7l-0.1-3.2l-3.3-0.9l3.2-1.1l-0.1-3l1.8,2.4L286,441.5z M279.5,438.2l-2.9-0.8l-1.7,2.7
			l-0.1-3.2l-3.3-0.9l3.2-1.1l-0.1-3l1.8,2.4l3.1-1.1l-1.8,2.9L279.5,438.2z M290.9,452.8l1.8,2.4l-2.9-0.8l-1.7,2.7l-0.1-3.2
			l-3.3-0.9l3.2-1.1l-0.1-3l1.8,2.4l3.1-1.1L290.9,452.8z M302.5,467.7l3.1-1.1l-1.8,2.9l1.8,2.4l-2.9-0.8l-1.7,2.7l-0.1-3.2
			l-3.3-0.9l3.2-1.1l-0.1-3L302.5,467.7z M299,458l-1.8,2.9l1.8,2.4l-2.9-0.8l-1.7,2.7l-0.1-3.2l-3.3-0.9l3.2-1.1l-0.1-3l1.8,2.4
			L299,458z M310.7,478l1.8,2.4l-2.9-0.8l-1.7,2.7l-0.1-3.2l-3.3-0.9l3.2-1.1l-0.1-3l1.8,2.4l3.1-1.1L310.7,478z M315.6,484.4
			l3.1-1.1l-1.8,2.9l1.8,2.4l-2.9-0.8l-1.7,2.7l-0.1-3.2l-3.3-0.9l3.2-1.1l-0.1-3L315.6,484.4z M332,500.3l-1.8,2.9l1.8,2.4
			l-2.9-0.8l-1.7,2.7l-0.1-3.2l-3.3-0.9l3.2-1.1l-0.1-3l1.8,2.4L332,500.3z M323.6,494.6l1.8,2.4l-2.9-0.8l-1.7,2.7l-0.1-3.2
			l-3.3-0.9l3.2-1.1l-0.1-3l1.8,2.4l3.1-1.1L323.6,494.6z M338.4,513.5l-2.9-0.8l-1.7,2.7l-0.1-3.2l-3.3-0.9l3.2-1.1l-0.1-3l1.9,2.4
			l3.1-1.1l-1.8,2.9L338.4,513.5z M244.8,516.4l-1.7,2.7l-0.1-3.2l-3.3-0.9l3.2-1.1l-0.1-3l1.8,2.4l3.1-1.1l-1.8,2.9l1.9,2.4
			L244.8,516.4z M249.6,522.4l-0.1-3l1.8,2.4l3.1-1.1l-1.8,2.9l1.8,2.4l-2.9-0.8l-1.7,2.7l-0.1-3.2l-3.3-0.9L249.6,522.4z
			 M257.6,529.8l3.1-1.1l-1.8,2.9l1.8,2.4l-2.9-0.8l-1.7,2.7l-0.1-3.2l-3.3-0.9l3.2-1.1l-0.1-3L257.6,529.8z M264.5,541.6l-1.7,2.7
			l-0.1-3.2l-3.3-0.9l3.2-1.1l-0.1-3l1.8,2.4l3.1-1.1l-1.8,2.9l1.8,2.4L264.5,541.6z M269,544.4l1.8,2.4l3.1-1.1l-1.8,2.9l1.8,2.4
			l-2.9-0.8l-1.7,2.7l-0.1-3.2l-3.3-0.9l3.2-1.1L269,544.4z M277.2,554.8l3.1-1.1l-1.8,2.9l1.8,2.4l-2.9-0.8l-1.7,2.7l-0.1-3.2
			l-3.3-0.9l3.2-1.1l-0.1-3L277.2,554.8z M211.9,471.4l3.1-1.1l-1.8,2.9l1.8,2.4l-2.9-0.8l-1.7,2.7l-0.1-3.2l-3.3-0.9l3.2-1.1
			l-0.1-3L211.9,471.4z M221.4,483.6l-2.9-0.8l-1.7,2.7l-0.1-3.2l-3.3-0.9l3.2-1.1l-0.1-3l1.8,2.4l3.1-1.1l-1.8,2.9L221.4,483.6z
			 M224.9,488l3.1-1.1l-1.8,2.9l1.9,2.4l-2.9-0.8l-1.7,2.7l-0.1-3.2l-3.3-0.9l3.2-1.1l-0.1-3L224.9,488z M229.7,494.1l1.8,2.4
			l3.1-1.1l-1.8,2.9l1.8,2.4l-2.9-0.8l-1.7,2.7l-0.1-3.2l-3.3-0.9l3.2-1.1L229.7,494.1z M236.2,505.2l-0.1-3l1.8,2.4l3.1-1.1
			l-1.8,2.9l1.8,2.4l-2.9-0.8l-1.7,2.7l-0.1-3.2l-3.3-0.9L236.2,505.2z"/>
		<path class="st1" d="M246.4,433.6l0.6-0.5l2,2.5l-0.6,0.5l-0.2-0.3l-24.1,18.8l0.1,0.2c0.3,0.4,0.8,0.6,1.6,0.5l23.3-18.3
			l-0.2-0.3l0.6-0.5l2,2.6l-0.6,0.5l-0.2-0.3l-23.5,18.3c-0.2,0.6-0.1,1.1,0.2,1.5l0,0.1l24.1-18.8l-0.2-0.2l0.6-0.5l2,2.5l-0.6,0.5
			l-0.2-0.2l-20.3,15.9c-1.2,1-2.5,1.6-3.7,1.8c-1.2,0.3-2,0.1-2.5-0.5c-0.4-0.5-0.4-1.2-0.1-2c0.4-0.9,1-1.8,1.9-2.7
			c-1.1,0.6-2.2,1-3.1,1.1c-0.9,0.1-1.6-0.1-1.9-0.5c-0.5-0.6-0.4-1.5,0.1-2.6c0.6-1.1,1.4-2.1,2.7-3.1l20.3-15.9L246.4,433.6z
			 M320.2,527.7c0.5-0.1,0.9,0,1.1,0.2c0.2,0.3,0.2,0.6,0,1.1c-0.3,0.5-0.7,1-1.3,1.5c-2.9,2.3-9.2,6.8-19,13.6l-0.4-0.5
			c8.9-7.8,14.8-12.8,17.8-15.1C319,528.2,319.6,527.9,320.2,527.7z M310.5,515.5l0.6-0.5l3.7,4.7l-4.7,3.6l-0.2-0.3l3.2-4.3l-0.8-1
			L296.5,530l1,1.3l2.9-1.2l0.2,0.3l-5.4,4.2l-0.2-0.3l1.8-2.5l-1-1.3l-7.7,6l0.8,1l4.7-1.9l0.2,0.3l-4.5,3.5l-3.7-4.7l0.7-0.5
			l0.2,0.3l24.1-18.8L310.5,515.5z M304.7,508.1l-0.3-0.3l-24.1,18.8l0.3,0.3l-0.7,0.5l-2.2-2.8l0.7-0.5l0.2,0.3l22-17.2l-24.6,15.3
			l-0.5-0.6l18.8-18.3l-18.4,14.4l-0.7,2.1l-0.6,0.5l-1.7-2.2l0.6-0.5l2.1-0.2l22.8-17.8l-0.3-0.3l0.6-0.5l1.7,2.1l-15.9,15.5
			l18.8-11.7l2,2.5L304.7,508.1z M290.3,488.3l0.5,0.7c0.5,0.6,0.4,1.5-0.2,2.6c-0.6,1.2-1.6,2.3-2.9,3.4l-15.8,12.3
			c-1.3,1-2.6,1.7-3.9,1.9c-1.3,0.3-2.2,0.2-2.7-0.4l-0.5-0.7c-0.5-0.7-0.5-1.6,0.1-2.8c0.6-1.1,1.5-2.2,2.8-3.3l15.8-12.3
			c1.3-1.1,2.7-1.7,4-2.1C288.9,487.5,289.8,487.7,290.3,488.3z M289.4,488.6l-24,18.8l0.9,1.2l24-18.8L289.4,488.6z M299.9,545.8
			c-0.2,0.5-0.6,1-1.2,1.4c-0.6,0.5-1.2,0.8-1.8,0.8c-0.5,0.1-0.9,0-1.1-0.2c-0.2-0.3-0.2-0.7,0.1-1.2c0.3-0.5,0.7-1,1.2-1.4
			c0.6-0.5,1.1-0.7,1.7-0.9c0.5-0.2,0.9-0.1,1.2,0.2C300.2,544.9,300.2,545.3,299.9,545.8z M280.4,475.6l2.3,3l-4.7,3.6l-0.3-0.3
			l3.2-4.2l-1.3-1.6c-0.1-0.1-0.2-0.2-0.3-0.2l-24,18.8c0.1,0.1,0.1,0.2,0.2,0.3l1.3,1.6l4.6-1.9l0.3,0.3l-4.5,3.5l-2.3-3
			c-0.5-0.7-0.5-1.6,0.2-2.7c0.6-1.2,1.5-2.3,2.8-3.3l15.8-12.4c1.3-1.1,2.7-1.7,4-2.1C279,474.8,279.8,475,280.4,475.6z
			 M268.5,461.9l0.6-0.5l2,2.5l-0.6,0.5l-0.2-0.3l-24.1,18.8l0.8,1l4.8-2l0.2,0.3l-4.7,3.7l-3.7-4.7l0.7-0.5l0.2,0.3l24.1-18.8
			L268.5,461.9z M263.5,454l-4.7,3.7l-0.2-0.3l3.2-4.2l-0.8-1l-15.7,12.3l1,1.3l2.9-1.2l0.2,0.3l-5.4,4.2l-0.2-0.3l1.8-2.5l-1-1.3
			l-7.7,6l0.8,1l4.7-1.9l0.2,0.3l-4.5,3.5l-3.6-4.7l0.7-0.5l0.2,0.3l24.1-18.8l-0.2-0.3l0.6-0.5L263.5,454z"/>
	</g>
	<g>
		<path class="st2" d="M394.7,350.5l55,205.2l-2.3,0.6c-0.2-0.3-0.5-0.5-0.9-0.7c-0.8-0.4-1.7-0.5-2.6-0.2c-0.8,0.2-1.5,0.7-2,1.4
			c-0.2,0.4-0.3,0.7-0.4,1.1l-1.6,0.4c-0.3-0.3-0.5-0.5-0.9-0.7c-0.8-0.4-1.7-0.5-2.6-0.2c-0.8,0.2-1.5,0.7-2,1.4
			c-0.2,0.4-0.3,0.7-0.4,1.1l-2.3,0.6c-0.2-0.3-0.5-0.5-0.9-0.7c-0.8-0.4-1.7-0.5-2.6-0.2c-0.8,0.2-1.5,0.7-2,1.4
			c-0.2,0.4-0.4,0.7-0.5,1.1l-1.9,0.5c-0.2-0.3-0.5-0.5-0.9-0.7c-0.8-0.4-1.7-0.5-2.6-0.2c-0.8,0.2-1.5,0.7-2,1.4
			c-0.2,0.4-0.4,0.7-0.5,1.1l-2.3,0.6c-0.2-0.3-0.5-0.5-0.9-0.7c-0.8-0.4-1.7-0.5-2.6-0.2c-0.8,0.2-1.5,0.7-2,1.4
			c-0.2,0.4-0.4,0.7-0.5,1.1l-1.9,0.5c-0.2-0.3-0.5-0.5-0.9-0.7c-0.8-0.4-1.7-0.5-2.6-0.2c-0.8,0.2-1.5,0.7-2,1.4
			c-0.2,0.4-0.4,0.7-0.5,1.1l-2.6,0.7c-0.2-0.3-0.5-0.5-0.9-0.7c-0.8-0.4-1.7-0.5-2.6-0.2c-0.8,0.2-1.5,0.7-2,1.4
			c-0.2,0.4-0.4,0.7-0.5,1.1l-1.6,0.4c-0.2-0.3-0.5-0.5-0.9-0.7c-0.8-0.4-1.7-0.5-2.6-0.2c-0.8,0.2-1.5,0.7-2,1.4
			c-0.2,0.4-0.4,0.7-0.5,1.1l-2.3,0.6c-0.2-0.3-0.5-0.5-0.9-0.7c-0.8-0.4-1.7-0.5-2.6-0.2c-0.8,0.2-1.5,0.7-2,1.4
			c-0.2,0.4-0.4,0.7-0.5,1.1l-1.9,0.5c-0.2-0.3-0.5-0.5-0.9-0.7c-0.8-0.4-1.7-0.5-2.6-0.2c-0.8,0.2-1.5,0.7-2,1.4
			c-0.2,0.4-0.4,0.7-0.5,1.1l-2.3,0.6c-0.2-0.3-0.5-0.5-0.9-0.7c-0.8-0.4-1.7-0.5-2.6-0.2c-0.8,0.2-1.5,0.7-2,1.4
			c-0.2,0.4-0.4,0.7-0.5,1.1l-1.9,0.5c-0.2-0.3-0.5-0.5-0.9-0.7c-0.8-0.4-1.7-0.5-2.6-0.2c-0.8,0.2-1.5,0.7-2,1.4
			c-0.2,0.4-0.4,0.7-0.5,1.1l-1.2,0.3c-0.2-0.3-0.5-0.5-0.9-0.7c-0.8-0.4-1.7-0.5-2.6-0.2c-0.8,0.2-1.5,0.7-2,1.4
			c-0.2,0.4-0.4,0.7-0.5,1.1l-1.3,0.4l-55-205.2L394.7,350.5z"/>
		<g>
			<path class="st1" d="M398.7,390.1l-2.9-10.7c-2.1-7.7-6.6-11.2-13.6-10.4c-1,2.8-3.1,5.7-6.3,8.6c-1.1,1-2.4,2-3.7,3
				c1.9,3.3,4.6,6,8.2,8.1c5.1,2.9,10.6,3.6,16.3,2.1C397.4,390.6,398,390.4,398.7,390.1z M399.3,392.6c-0.7,0.2-1.4,0.5-2.1,0.6
				c-6.5,1.7-12.5,0.9-18.3-2.4c-3.9-2.2-6.9-5.2-9-8.9c-4.7,3-10.4,5.4-16.9,7.2c-2.9,0.8-5.7,1.4-8.4,1.7
				c-0.9,0.1-1.8,0.3-2.7,0.3c-3.2,0.3-6.4,0.3-9.5,0c-0.3,3.3-1.3,6.4-3.1,9.5c-3.4,5.7-8.3,9.5-14.7,11.2c-2,0.5-3.9,0.8-5.8,0.9
				l33.8,126c1.7-0.9,3.5-1.6,5.5-2.1c6.5-1.7,12.6-0.9,18.4,2.3c3,1.8,5.5,4,7.4,6.7c2.5-1.8,5.2-3.3,8.2-4.7
				c0.8-0.4,1.6-0.7,2.5-1.1c2.5-1,5.2-1.9,8.1-2.7c6.5-1.7,12.6-2.5,18.2-2.2c0-4.2,1.1-8.3,3.3-12.2c3.3-5.7,8.2-9.5,14.6-11.2
				c0.7-0.2,1.4-0.4,2.1-0.5L399.3,392.6z M382.8,365.2c7.2-0.7,11.8,2.9,14,10.9l40.4,150.8c2.1,8-0.1,13.4-6.7,16.4
				c-1,0.4-2.2,0.8-3.4,1.1c-0.7-1.1-1.6-2.1-2.7-3c-2-1.6-4.7-2.8-8.2-3.5c-0.8-0.1-1.6-0.3-2.4-0.4c0.1,1,0.3,2.1,0.6,3.2
				c0.3,1.1,0.7,2.2,1.1,3.2c0.5,1.1,1.1,2.2,1.8,3.2L376.1,558c-0.1-1.2-0.3-2.4-0.6-3.5l0-0.1c-0.5-1.9-1.2-3.6-2.1-5.2
				c0,0-0.1,0.1-0.1,0.1c-2.7,2.4-4.5,4.8-5.5,7.2c-0.6,1.3-0.8,2.6-0.8,3.9l-4.9,1.3c-9.2,2.5-15.1-0.9-17.6-10.1L303.9,401
				c-2.5-9.2,0.9-15.1,10.1-17.6l4.9-1.3c0.7,1.1,1.6,2.1,2.7,3c2,1.6,4.8,2.7,8.4,3.5c0.1,0,0.1,0,0.2,0c0-1.8-0.2-3.7-0.7-5.6
				l0-0.1c-0.3-1.2-0.7-2.3-1.2-3.4l41.3-11.1c-0.1,1.2,0,2.5,0.1,3.7c0.1,1.1,0.4,2.2,0.7,3.3c0.3,1.1,0.6,2.1,1,3.1
				c0.6-0.5,1.2-1,1.9-1.6c2.6-2.4,4.4-4.8,5.3-7.2c0.6-1.3,0.8-2.6,0.8-3.9C380.5,365.6,381.7,365.3,382.8,365.2z M382.8,396.1
				l31.7,118.3l-3.5,0.9L379.3,397L382.8,396.1z M369,380.2c-0.5-1.2-1-2.5-1.4-3.9c-0.3-1.1-0.5-2.2-0.7-3.3l-35.2,9.4l0,0.1
				c0.6,2.3,0.9,4.5,0.9,6.7c2.8,0.4,5.7,0.4,8.8,0.2c0.9,0,1.8-0.1,2.7-0.3c2.7-0.3,5.5-0.8,8.5-1.6
				C359.1,385.6,364.6,383.2,369,380.2z M316.2,386.5c-8.9,2.4-12.2,8-9.8,16.9l1.8,6.9c1.9,0,3.9-0.2,5.9-0.8
				c5.7-1.5,10.1-4.9,13.2-10c1.5-2.7,2.4-5.6,2.7-8.5c-0.8-0.1-1.6-0.2-2.4-0.4c-4.4-0.9-7.7-2.4-10-4.4L316.2,386.5z M330.6,410.1
				l31.7,118.3l-3.5,0.9L327,411L330.6,410.1z M431.8,513.7c-0.7,0.1-1.4,0.2-2.1,0.4c-5.7,1.5-10.1,4.9-13.1,9.9
				c-2,3.6-3,7.3-3,11.1c1.7,0.2,3.2,0.4,4.7,0.7c4.2,0.9,7.4,2.4,9.7,4.3c6.5-2.8,8.7-8.1,6.6-15.8L431.8,513.7z M411.1,537.1
				c-5.4-0.4-11.3,0.2-17.7,1.9c-3,0.8-5.7,1.8-8.2,2.9c-0.9,0.3-1.7,0.7-2.5,1.1c-2.8,1.3-5.3,2.8-7.5,4.5c1.1,1.9,2,3.9,2.6,6.2
				l0,0.1l35.2-9.4c-0.4-1-0.8-2.1-1.1-3.2C411.5,539.8,411.3,538.5,411.1,537.1z M370.1,548.8c0.6-0.6,1.2-1.1,1.9-1.6
				c-1.7-2.4-3.9-4.4-6.6-6c-5.2-2.9-10.6-3.6-16.4-2c-2,0.5-3.9,1.3-5.5,2.3l1.8,6.9c2.4,8.9,8,12.1,16.9,9.7l1.4-0.4
				C364.6,554.8,366.8,551.8,370.1,548.8z"/>
			<path class="st6" d="M398.7,390.1c-0.6,0.3-1.3,0.5-2,0.7c-5.7,1.5-11.2,0.9-16.3-2.1c-3.5-2.1-6.3-4.8-8.2-8.1
				c1.4-1,2.6-2,3.7-3c3.2-2.9,5.2-5.8,6.3-8.6c7-0.8,11.5,2.6,13.6,10.4L398.7,390.1z M399.3,392.6l31.8,118.5
				c-0.7,0.1-1.4,0.3-2.1,0.5c-6.5,1.7-11.3,5.5-14.6,11.2c-2.2,3.9-3.3,7.9-3.3,12.2c-5.6-0.3-11.7,0.5-18.2,2.2
				c-2.9,0.8-5.6,1.7-8.1,2.7c-0.9,0.3-1.7,0.7-2.5,1.1c-3,1.3-5.7,2.9-8.2,4.7c-1.9-2.7-4.3-4.9-7.4-6.7
				c-5.8-3.3-11.9-4.1-18.4-2.3c-2,0.5-3.8,1.2-5.5,2.1l-33.8-126c1.9-0.1,3.8-0.3,5.8-0.9c6.5-1.7,11.4-5.5,14.7-11.2
				c1.8-3,2.8-6.2,3.1-9.5c3.1,0.3,6.2,0.3,9.5,0c0.9-0.1,1.8-0.2,2.7-0.3c2.7-0.4,5.5-0.9,8.4-1.7c6.5-1.7,12.1-4.1,16.9-7.2
				c2.1,3.7,5.1,6.6,9,8.9c5.7,3.3,11.8,4.1,18.3,2.4C397.9,393.1,398.6,392.9,399.3,392.6z M382.8,396.1l-3.5,0.9L411,515.3
				l3.5-0.9L382.8,396.1z M369,380.2c-4.5,3.1-9.9,5.5-16.3,7.2c-3,0.8-5.8,1.3-8.5,1.6c-0.9,0.1-1.8,0.2-2.7,0.3
				c-3.1,0.3-6,0.2-8.8-0.2c0-2.2-0.3-4.4-0.9-6.7l0-0.1l35.2-9.4c0.1,1.1,0.4,2.2,0.7,3.3C368.1,377.6,368.5,378.9,369,380.2z
				 M330.6,410.1L327,411l31.7,118.3l3.5-0.9L330.6,410.1z M316.2,386.5l1.4-0.4c2.3,2,5.7,3.5,10,4.4c0.8,0.2,1.6,0.3,2.4,0.4
				c-0.3,2.9-1.2,5.8-2.7,8.5c-3,5.1-7.4,8.4-13.2,10c-2,0.5-4,0.8-5.9,0.8l-1.8-6.9C304.1,394.5,307.3,388.9,316.2,386.5z
				 M431.8,513.7l2.9,10.7c2.1,7.7-0.1,13-6.6,15.8c-2.3-1.9-5.5-3.3-9.7-4.3c-1.5-0.3-3.1-0.5-4.7-0.7c0-3.8,1-7.5,3-11.1
				c3-5.1,7.3-8.4,13.1-9.9C430.4,513.9,431.1,513.8,431.8,513.7z M411.1,537.1c0.2,1.3,0.4,2.7,0.8,4.1c0.3,1.1,0.7,2.2,1.1,3.2
				l-35.2,9.4l0-0.1c-0.6-2.3-1.5-4.3-2.6-6.2c2.2-1.7,4.7-3.2,7.5-4.5c0.8-0.4,1.6-0.8,2.5-1.1c2.5-1.1,5.2-2.1,8.2-2.9
				C399.8,537.4,405.7,536.7,411.1,537.1z M370.1,548.8c-3.3,3-5.5,6-6.5,8.9l-1.4,0.4c-8.9,2.4-14.5-0.8-16.9-9.7l-1.8-6.9
				c1.7-1,3.5-1.8,5.5-2.3c5.7-1.5,11.2-0.9,16.4,2c2.7,1.6,4.9,3.6,6.6,6C371.3,547.7,370.7,548.2,370.1,548.8z"/>
		</g>
		<polygon class="st2" points="390.6,553.3 392.5,560.5 386.8,555.9 380.3,560.3 383,552.8 376.7,547.7 384.8,548.1 387.3,541.3 
			389.2,548.3 397.3,548.7 		"/>
		<polygon class="st2" points="342,388.6 343.9,395.8 338.2,391.2 331.7,395.6 334.4,388.2 328.1,383 336.2,383.4 338.7,376.6 
			340.6,383.7 348.7,384 		"/>
		<path class="st2" d="M391.1,401.4l3.3,0.2l-2.7,1.9l0.8,2.9l-2.4-1.9l-2.6,1.8l1.2-3l-2.7-2.2l3.4,0.2l1.1-2.9L391.1,401.4z
			 M397.1,423.9l0.8,2.9l-2.4-1.9l-2.6,1.8l1.2-3l-2.7-2.2l3.4,0.2l1.1-2.9l0.8,2.9l3.3,0.2L397.1,423.9z M395.1,416.3l-2.4-1.9
			l-2.6,1.8l1.2-3l-2.7-2.2l3.4,0.2l1.1-2.9l0.8,2.9l3.3,0.2l-2.7,1.9L395.1,416.3z M399.9,434.3l0.8,2.9l-2.4-1.9l-2.6,1.8l1.2-3
			l-2.7-2.2l3.4,0.2l1.1-2.9l0.8,2.9l3.3,0.2L399.9,434.3z M408.1,452.7l-2.7,1.9l0.8,2.9l-2.4-1.9l-2.6,1.8l1.2-3l-2.7-2.2l3.4,0.2
			l1.1-2.9l0.8,2.9L408.1,452.7z M405.3,442.2l-2.7,1.9l0.8,2.9l-2.4-1.9l-2.6,1.8l1.2-3l-2.7-2.2l3.4,0.2l1.1-2.9l0.8,2.9
			L405.3,442.2z M408.2,465.2l0.8,2.9l-2.4-1.9L404,468l1.2-3l-2.7-2.2l3.4,0.2l1.1-2.9l0.8,2.9l3.3,0.2L408.2,465.2z M410.3,473
			l3.3,0.2l-2.7,1.9l0.8,2.9l-2.4-1.9l-2.6,1.8l1.2-3l-2.7-2.2l3.4,0.2l1.1-2.9L410.3,473z M415.9,493.8l3.3,0.2l-2.7,1.9l0.8,2.9
			l-2.4-1.9l-2.6,1.8l1.2-3l-2.7-2.2l3.4,0.2l1.1-2.9L415.9,493.8z M413.7,485.5l0.8,2.9l-2.4-1.9l-2.6,1.8l1.2-3l-2.7-2.2l3.4,0.2
			l1.1-2.9l0.8,2.9l3.3,0.2L413.7,485.5z M419.9,508.7l-2.4-1.9l-2.6,1.8l1.2-3l-2.7-2.2l3.4,0.2l1.1-2.9l0.8,2.9l3.3,0.2l-2.7,1.9
			L419.9,508.7z M330,476.5l1.2-3l-2.7-2.2l3.4,0.2l1.1-2.9l0.8,2.9l3.3,0.2l-2.7,1.9l0.8,2.9l-2.4-1.9L330,476.5z M334.7,482.1
			l1.1-2.9l0.8,2.9l3.3,0.2l-2.7,1.9l0.8,2.9l-2.4-1.9l-2.6,1.8l1.2-3l-2.7-2.2L334.7,482.1z M339.2,492l3.3,0.2l-2.7,1.9l0.8,2.9
			l-2.4-1.9l-2.6,1.8l1.2-3l-2.7-2.2l3.4,0.2l1.1-2.9L339.2,492z M340.9,505.7l-2.6,1.8l1.2-3l-2.7-2.2l3.4,0.2l1.1-2.9l0.8,2.9
			l3.3,0.2l-2.7,1.9l0.8,2.9L340.9,505.7z M344,510l0.8,2.9l3.3,0.2l-2.7,1.9l0.8,2.9l-2.4-1.9l-2.6,1.8l1.2-3l-2.7-2.2l3.4,0.2
			L344,510z M347.4,522.8l3.3,0.2l-2.7,1.9l0.8,2.9l-2.4-1.9l-2.6,1.8l1.2-3l-2.7-2.2l3.4,0.2l1.1-2.9L347.4,522.8z M320,420.5
			l3.3,0.2l-2.7,1.9l0.8,2.9l-2.4-1.9l-2.6,1.8l1.2-3l-2.7-2.2l3.4,0.2l1.1-2.9L320,420.5z M321.6,433.5l-2.6,1.8l1.2-3l-2.7-2.2
			l3.4,0.2l1.1-2.9l0.8,2.9l3.3,0.2l-2.7,1.9l0.8,2.9L321.6,433.5z M325.4,440.8l3.3,0.2l-2.7,1.9l0.8,2.9l-2.4-1.9l-2.6,1.8l1.2-3
			l-2.7-2.2l3.4,0.2l1.1-2.9L325.4,440.8z M327.4,448.3l0.8,2.9l3.3,0.2l-2.7,1.9l0.8,2.9l-2.4-1.9l-2.6,1.8l1.2-3l-2.7-2.2l3.4,0.2
			L327.4,448.3z M329,461.1l1.1-2.9l0.8,2.9l3.3,0.2l-2.7,1.9l0.8,2.9l-2.4-1.9l-2.6,1.8l1.2-3l-2.7-2.2L329,461.1z"/>
		<path class="st1" d="M371.9,399.1l0.8-0.2l0.8,3.1l-0.8,0.2l-0.1-0.4l-29.5,7.9l0.1,0.2c0.1,0.5,0.6,0.8,1.3,1.1l28.6-7.7
			l-0.1-0.4l0.8-0.2l0.9,3.2l-0.8,0.2l-0.1-0.4l-28.8,7.7c-0.4,0.5-0.6,1-0.4,1.5l0,0.1l29.5-7.9L374,407l0.8-0.2l0.8,3.1l-0.8,0.2
			l-0.1-0.3l-24.9,6.7c-1.5,0.4-2.9,0.5-4.1,0.3c-1.2-0.2-1.9-0.7-2.1-1.4c-0.2-0.6,0.1-1.3,0.7-1.9c0.7-0.7,1.6-1.3,2.8-1.7
			c-1.3,0.1-2.4,0.1-3.3-0.2c-0.9-0.3-1.4-0.7-1.5-1.3c-0.2-0.8,0.2-1.5,1.1-2.3c0.9-0.8,2.2-1.4,3.7-1.8l24.9-6.7L371.9,399.1z
			 M403,514.6c0.5,0.1,0.8,0.3,0.9,0.7c0.1,0.3-0.1,0.7-0.5,1c-0.5,0.4-1,0.7-1.7,0.8c-3.5,0.9-11.1,2.7-22.8,5.1l-0.2-0.6
			c11.2-3.7,18.7-6,22.3-7C401.7,514.6,402.4,514.5,403,514.6z M396.4,490.6l-0.1-0.4l-29.5,7.9l0.1,0.4l-0.9,0.2l-0.9-3.4l0.8-0.2
			l0.1,0.4l27-7.2l-28.7,4.4l-0.2-0.7l24.4-9.5l-22.6,6.1l-1.5,1.6l-0.8,0.2l-0.7-2.7l0.8-0.2l2,0.7l27.9-7.5l-0.1-0.4l0.8-0.2
			l0.7,2.6l-20.6,8l21.9-3.4l0.8,3.1L396.4,490.6z M398.9,499.6l0.8-0.2l1.5,5.7l-5.7,1.5l-0.1-0.4l4.6-2.7l-0.3-1.3l-19.3,5.2
			l0.4,1.6l3.1,0.1l0.1,0.4l-6.6,1.8l-0.1-0.4l2.7-1.6l-0.4-1.6l-9.4,2.5l0.3,1.3l5,0.1l0.1,0.4l-5.5,1.5l-1.5-5.7l0.8-0.2l0.1,0.4
			L399,500L398.9,499.6z M389.9,466.6l-29.5,7.9l0.4,1.4l29.5-7.9L389.9,466.6z M390.9,466.7l0.2,0.8c0.2,0.8-0.2,1.5-1.2,2.4
			c-1,0.9-2.4,1.5-4,2l-19.4,5.2c-1.6,0.4-3,0.5-4.3,0.3c-1.3-0.2-2.1-0.7-2.3-1.4l-0.2-0.8c-0.2-0.8,0.2-1.6,1.2-2.5
			c1-0.8,2.3-1.4,3.9-1.9l19.4-5.2c1.6-0.4,3.1-0.6,4.4-0.4C389.9,465.4,390.7,465.9,390.9,466.7z M377.8,522.3
			c0.1,0.3-0.1,0.7-0.5,1.1c-0.4,0.4-1,0.6-1.7,0.8c-0.8,0.2-1.4,0.2-1.9,0.1c-0.5-0.1-0.8-0.3-0.9-0.6c-0.1-0.3,0.1-0.7,0.6-1.1
			c0.5-0.4,1-0.6,1.6-0.8c0.7-0.2,1.3-0.2,1.9-0.1C377.4,521.7,377.7,521.9,377.8,522.3z M387.7,454.8l-5.7,1.5l-0.1-0.4l4.6-2.6
			l-0.5-2c0-0.1-0.1-0.3-0.2-0.3l-29.5,7.9c0,0.1,0.1,0.2,0.1,0.4l0.5,2l5,0l0.1,0.4l-5.5,1.5l-1-3.7c-0.2-0.8,0.2-1.6,1.2-2.5
			c1-0.9,2.3-1.5,3.9-1.9l19.4-5.2c1.6-0.4,3.1-0.6,4.4-0.4c1.3,0.3,2,0.8,2.2,1.6L387.7,454.8z M381.2,433.8l0.8-0.2l0.8,3.1
			l-0.8,0.2l-0.1-0.4l-29.5,7.9l0.3,1.3l5.2,0l0.1,0.4l-5.7,1.5l-1.5-5.7l0.9-0.2l0.1,0.4l29.5-7.9L381.2,433.8z M379.6,424.7
			l-5.7,1.5l-0.1-0.4l4.6-2.7l-0.3-1.3l-19.3,5.2l0.4,1.6l3.1,0.1l0.1,0.4l-6.6,1.8l-0.1-0.4l2.7-1.6l-0.4-1.6l-9.4,2.5l0.3,1.3
			l5,0.1l0.1,0.4l-5.5,1.5l-1.5-5.7l0.8-0.2l0.1,0.4l29.5-7.9l-0.1-0.4l0.8-0.2L379.6,424.7z"/>
	</g>
	<g>
		<path class="st3" d="M708.6,469.5l96.8-32.1l-28.1,85.1l34.5,54.2l-73.7,38.6l-1.2-89.4l-12-3.6l-0.4-40.6L708.6,469.5z
			 M140.7,615.3l-74.9-38.6l33.3-54.2l-30.5-85.1l97.6,32.1l-15.3,12.3l0.8,40.6l-12.3,3.6L140.7,615.3z"/>
		<path class="st8" d="M709,496l-0.4-26.5l15.9,12.3L709,496z M736.9,525.9h-45.8l-0.2-13.3l33.9,9.6L736.9,525.9z M150.9,481.8
			l15.3-12.3l0.4,26.5L150.9,481.8z M151.7,522.3l33.5-9.6l0.2,13.3h-46L151.7,522.3z"/>
		<polygon class="st9" points="139.5,525.9 185.5,525.9 691.1,525.9 736.9,525.9 738.1,615.3 738.9,687 141.5,687 140.7,615.3 		"/>
		<path class="st10" d="M724.9,522.3l-33.9-9.6L709,496l15.5-14.3L724.9,522.3z M185.3,512.7l-33.5,9.6l-0.8-40.6l15.7,14.3
			L185.3,512.7z"/>
	</g>
	<g>
		<path class="st11" d="M193.1,573.5l7.4,29.2l3.3-15.8v17.3l-8.7,40.3h-2l-14.7-59.9c-0.5-2-1-3.4-1.6-4.1c-0.3-0.5-0.9-0.8-1.7-1
			c-1.6-0.5-2.5-1.6-2.5-3.2c0-0.9,0.2-1.6,0.7-2.1c0.5-0.5,1.1-0.8,2-0.8H193.1z M178.4,597.4l4,15.7v15.7c0,1.6,0,2.7,0.1,3.4
			c0.1,0.7,0.3,1.5,0.6,2.3c0.5,1.5,1.3,2.7,2.2,3.4l1.4,1.2c1,0.8,1.4,1.7,1.4,2.7c0,1.8-0.9,2.7-2.8,2.7h-9.5
			c-1.9,0-2.8-0.9-2.8-2.6c0-0.6,0.1-1,0.2-1.3c0.2-0.3,0.5-0.6,1-1c2.8-2.1,4.2-5.7,4.2-10.8V597.4z M207,573.5h16.8h1
			c1.9,0,2.8,0.9,2.8,2.7c0,1.4-0.5,2.4-1.5,2.8c-0.8,0.4-1.3,0.6-1.5,0.7c-0.1,0.1-0.3,0.3-0.4,0.6c-0.3,0.6-0.4,1.4-0.4,2.7v52.1
			c0,1.2,0.1,2.1,0.4,2.7c0.2,0.3,0.3,0.5,0.4,0.6c0.1,0.1,0.6,0.3,1.5,0.7c1,0.5,1.5,1.4,1.5,2.8c0,1.8-0.9,2.7-2.8,2.7h-1H207
			h-1.2c-1.1,0-1.9-0.2-2.5-0.7c-0.6-0.5-0.8-1.2-0.8-2.1c0-1.5,0.6-2.5,1.8-2.9c1-0.3,1.6-0.6,1.7-0.7c0.2-0.1,0.4-0.3,0.5-0.6
			c0.4-0.6,0.6-1.6,0.6-3V573.5z"/>
		<path class="st11" d="M261.5,577.7c-1.3,0.6-2.2,1.5-2.7,2.5c-0.5,1.1-0.8,2.7-0.8,4.7v46.5c0,3.1,0.3,5.2,0.9,6.5
			c0.5,1,1.3,1.8,2.6,2.2v5.7c-5.6-0.6-10.3-3.5-14.1-8.7c-4.9-6.7-7.4-16.1-7.4-28.2c0-6,0.6-11.5,1.9-16.4c1.3-4.9,3.2-9,5.8-12.4
			c1.9-2.6,4-4.6,6.3-5.9c2.2-1.4,4.7-2.1,7.4-2.3V577.7z M264.6,577.7v-5.6c2.7,0.2,5.2,0.9,7.5,2.3c2.3,1.4,4.4,3.3,6.3,5.9
			c5.1,6.9,7.7,16.5,7.7,28.8c0,12-2.5,21.4-7.4,28.2c-3.8,5.2-8.5,8.1-14.1,8.7v-5.7c0.7-0.2,1.2-0.5,1.5-0.8
			c0.4-0.3,0.7-0.8,1-1.4c0.7-1.4,1-3.6,1-6.5V585c0-1.8-0.2-3.3-0.7-4.4c-0.3-0.7-0.7-1.3-1.1-1.7
			C266,578.5,265.3,578.1,264.6,577.7z"/>
		<path class="st11" d="M326.7,626.3l-3.6,18.2h-9.9l-13.5-62.2c-0.2-0.9-0.4-1.6-0.6-1.9c-0.2-0.3-0.4-0.6-0.8-0.9
			c-0.8-0.5-1.3-0.9-1.6-1.3c-0.3-0.4-0.4-1-0.4-1.7c0-1,0.3-1.9,1-2.4c0.5-0.5,1.4-0.7,2.6-0.7h16.8c1.1,0,1.8,0,2.2,0.1
			c0.4,0.1,0.7,0.2,1,0.4c0.3,0.2,0.5,0.6,0.6,1c0.2,0.5,0.3,0.9,0.3,1.3c0,1.3-0.4,2.2-1.3,2.8c-0.7,0.5-1.1,0.9-1.3,1.4
			c-0.2,0.5-0.4,1.1-0.4,2c0,0.6,0,1,0.1,1.5L326.7,626.3z M328.1,618.9l-2-9.8l4.3-21.9c0.3-1.4,0.4-2.2,0.4-2.5
			c0.1-0.8-0.1-1.6-0.4-2.5c-0.4-1.2-1-2-1.9-2.4l-1.2-0.6c-1-0.5-1.5-1.3-1.5-2.7c0-0.9,0.3-1.7,0.8-2.2c0.6-0.5,1.3-0.8,2.3-0.8
			h9.3c1.2,0,1.9,0.2,2.3,0.5c0.6,0.5,0.9,1.3,0.9,2.2c0,0.7-0.1,1.2-0.3,1.6c-0.2,0.4-0.5,0.7-1,1l-1.9,1.2
			c-0.8,0.5-1.6,1.6-2.3,3.1c-0.7,1.5-1.3,3.3-1.7,5.3L328.1,618.9z"/>
		<path class="st11" d="M373.6,644.5h-16.9h-1c-0.9,0-1.6-0.2-2.1-0.7c-0.5-0.5-0.7-1.1-0.7-2c0-1.4,0.5-2.4,1.5-2.8
			c0.8-0.4,1.3-0.6,1.5-0.7c0.1-0.1,0.3-0.3,0.4-0.6c0.3-0.6,0.5-1.4,0.5-2.7V583c0-1.2-0.1-2.1-0.5-2.7c-0.1-0.3-0.3-0.5-0.4-0.6
			c-0.1-0.1-0.6-0.3-1.5-0.7c-1-0.5-1.5-1.4-1.5-2.8c0-0.9,0.3-1.5,0.7-2c0.5-0.5,1.2-0.7,2.1-0.7h1h16.9h1c0.9,0,1.6,0.2,2.1,0.7
			c0.5,0.5,0.7,1.1,0.7,2c0,1.4-0.5,2.4-1.5,2.8c-0.8,0.4-1.3,0.6-1.5,0.7c-0.1,0.1-0.3,0.3-0.4,0.6c-0.3,0.6-0.5,1.4-0.5,2.7v52.1
			c0,1.2,0.1,2.1,0.5,2.7c0.1,0.3,0.3,0.5,0.4,0.6c0.1,0.1,0.6,0.3,1.5,0.7c1,0.5,1.5,1.4,1.5,2.8c0,0.9-0.3,1.5-0.7,2
			c-0.5,0.5-1.2,0.7-2.1,0.7H373.6z"/>
		<path class="st11" d="M412,573.5v71.1h-16.8h-1c-0.9,0-1.6-0.2-2.1-0.7c-0.5-0.5-0.7-1.1-0.7-2c0-1.4,0.5-2.4,1.5-2.8
			c0.8-0.4,1.3-0.6,1.5-0.7c0.1-0.1,0.3-0.3,0.4-0.6c0.3-0.6,0.5-1.4,0.5-2.7V583c0-1.2-0.1-2.1-0.5-2.7c-0.1-0.3-0.3-0.5-0.4-0.6
			c-0.1-0.1-0.6-0.3-1.5-0.7c-1-0.5-1.5-1.4-1.5-2.8c0-0.9,0.3-1.5,0.7-2c0.5-0.5,1.2-0.7,2.1-0.7h1H412z M415.1,611.4v-6
			c1.5-1,2.5-2,3.2-3.2c0.7-1.1,1.2-2.7,1.6-4.6c0.2-1.3,0.5-2.2,0.8-2.7c0.3-0.5,0.8-0.8,1.4-0.8c0.8,0,1.4,0.4,1.7,1.3
			c0.2,0.5,0.3,1.5,0.3,3.1v19.8c0,1.6-0.1,2.8-0.4,3.4c-0.3,0.6-0.7,0.9-1.5,0.9c-0.6,0-1-0.2-1.4-0.7c-0.3-0.5-0.6-1.3-0.8-2.4
			c-0.4-2.4-1-4.2-1.8-5.5C417.4,612.7,416.4,611.8,415.1,611.4z M415.3,573.5h15.2v18.4c0,1.1-0.2,1.9-0.5,2.3
			c-0.3,0.5-0.8,0.7-1.4,0.7c-0.6,0-1-0.2-1.2-0.5c-0.3-0.3-0.5-1-0.7-1.9c-1-4-2.4-7.1-4.2-9.2c-1.9-2.1-4.3-3.4-7.2-3.8V573.5z
			 M415.4,644.5v-5.6c1.6-0.3,3-0.8,4.1-1.5c1.1-0.6,2.1-1.6,3.2-2.9c1.1-1.3,1.9-2.6,2.6-4c0.6-1.4,1.2-3.2,1.8-5.4
			c0.3-1.1,0.6-1.9,0.9-2.3c0.3-0.4,0.7-0.6,1.2-0.6c0.7,0,1.2,0.3,1.5,0.9c0.3,0.6,0.4,1.6,0.4,3v18.4H415.4z"/>
		<path class="st11" d="M470,573.5h9.9v6.3c-1.2,0.9-2.1,2.1-2.8,3.6c-1.1,2.4-1.8,5.2-2.2,8.4l-0.4,3.2c-0.1,1-0.4,1.8-0.8,2.4
			c-0.4,0.6-0.9,0.9-1.6,0.9c-0.7,0-1.2-0.3-1.6-0.9c-0.4-0.6-0.6-1.4-0.6-2.4V573.5z M499.8,573.5v61.2c0,1.4,0.2,2.3,0.6,2.9
			c0.2,0.3,0.4,0.6,0.6,0.7c0.2,0.1,0.8,0.3,1.7,0.7c1.2,0.4,1.8,1.3,1.8,2.9c0,0.9-0.3,1.6-1,2.2c-0.5,0.4-1.3,0.6-2.4,0.6h-1.2
			H483h-1.2c-1.1,0-1.9-0.2-2.5-0.7c-0.6-0.5-0.8-1.2-0.8-2.1c0-1.5,0.6-2.5,1.8-2.9c1-0.3,1.6-0.6,1.7-0.7c0.2-0.1,0.3-0.3,0.5-0.7
			c0.4-0.6,0.6-1.6,0.6-2.9v-61.2H499.8z M512.9,573.5v21.3c0,1-0.2,1.8-0.6,2.4c-0.4,0.6-0.9,0.9-1.6,0.9c-0.6,0-1.2-0.3-1.6-0.9
			c-0.4-0.6-0.7-1.4-0.8-2.4l-0.4-3.2c-0.4-3.2-1.1-6-2.2-8.4c-0.7-1.5-1.6-2.7-2.8-3.6v-6.3H512.9z"/>
		<path class="st11" d="M546,644.5h-16.9h-1c-0.9,0-1.6-0.2-2.1-0.7c-0.5-0.5-0.7-1.1-0.7-2c0-1.4,0.5-2.4,1.5-2.8
			c0.8-0.4,1.3-0.6,1.5-0.7c0.1-0.1,0.3-0.3,0.4-0.6c0.3-0.6,0.5-1.4,0.5-2.7V583c0-1.2-0.1-2.1-0.5-2.7c-0.1-0.3-0.3-0.5-0.4-0.6
			c-0.1-0.1-0.6-0.3-1.5-0.7c-1-0.5-1.5-1.4-1.5-2.8c0-0.9,0.3-1.5,0.7-2c0.5-0.5,1.2-0.7,2.1-0.7h1H546h1c0.9,0,1.6,0.2,2.1,0.7
			c0.5,0.5,0.7,1.1,0.7,2c0,1.4-0.5,2.4-1.5,2.8c-0.8,0.4-1.3,0.6-1.5,0.7c-0.1,0.1-0.3,0.3-0.4,0.6c-0.3,0.6-0.5,1.4-0.5,2.7v52.1
			c0,1.2,0.1,2.1,0.5,2.7c0.1,0.3,0.3,0.5,0.4,0.6c0.1,0.1,0.6,0.3,1.5,0.7c1,0.5,1.5,1.4,1.5,2.8c0,0.9-0.3,1.5-0.7,2
			c-0.5,0.5-1.2,0.7-2.1,0.7H546z"/>
		<path class="st11" d="M583.6,573.5l7.4,29.2l3.3-15.8v17.3l-8.7,40.3h-2l-14.7-59.9c-0.5-2-1-3.4-1.6-4.1c-0.3-0.5-0.9-0.8-1.7-1
			c-1.6-0.5-2.5-1.6-2.5-3.2c0-0.9,0.2-1.6,0.7-2.1c0.5-0.5,1.1-0.8,2-0.8H583.6z M568.9,597.4l4,15.7v15.7c0,1.6,0,2.7,0.1,3.4
			c0.1,0.7,0.3,1.5,0.6,2.3c0.5,1.5,1.3,2.7,2.2,3.4l1.4,1.2c1,0.8,1.4,1.7,1.4,2.7c0,1.8-0.9,2.7-2.8,2.7h-9.5
			c-1.9,0-2.8-0.9-2.8-2.6c0-0.6,0.1-1,0.3-1.3c0.2-0.3,0.5-0.6,1-1c2.8-2.1,4.2-5.7,4.2-10.8V597.4z M597.5,573.5h16.8h1
			c1.9,0,2.8,0.9,2.8,2.7c0,1.4-0.5,2.4-1.5,2.8c-0.8,0.4-1.3,0.6-1.5,0.7c-0.1,0.1-0.3,0.3-0.4,0.6c-0.3,0.6-0.5,1.4-0.5,2.7v52.1
			c0,1.2,0.1,2.1,0.5,2.7c0.1,0.3,0.3,0.5,0.4,0.6c0.1,0.1,0.6,0.3,1.5,0.7c1,0.5,1.5,1.4,1.5,2.8c0,1.8-0.9,2.7-2.8,2.7h-1h-16.8
			h-1.2c-1.1,0-1.9-0.2-2.5-0.7c-0.6-0.5-0.9-1.2-0.9-2.1c0-1.5,0.6-2.5,1.8-2.9c1-0.3,1.6-0.6,1.7-0.7c0.2-0.1,0.4-0.3,0.5-0.6
			c0.4-0.6,0.6-1.6,0.6-3V573.5z"/>
		<path class="st11" d="M652.7,573.5v71.1h-16.8h-1c-0.9,0-1.6-0.2-2.1-0.7c-0.5-0.5-0.7-1.1-0.7-2c0-1.4,0.5-2.4,1.5-2.8
			c0.8-0.4,1.3-0.6,1.5-0.7c0.1-0.1,0.3-0.3,0.4-0.6c0.3-0.6,0.5-1.4,0.5-2.7V583c0-1.2-0.1-2.1-0.5-2.7c-0.1-0.3-0.3-0.5-0.4-0.6
			c-0.1-0.1-0.6-0.3-1.5-0.7c-1-0.5-1.5-1.4-1.5-2.8c0-0.9,0.2-1.5,0.7-2c0.5-0.5,1.2-0.7,2.1-0.7h1H652.7z M655.9,611.4v-6
			c1.5-1,2.5-2,3.3-3.2c0.7-1.1,1.2-2.7,1.5-4.6c0.2-1.3,0.5-2.2,0.8-2.7c0.3-0.5,0.8-0.8,1.4-0.8c0.8,0,1.4,0.4,1.7,1.3
			c0.2,0.5,0.3,1.5,0.3,3.1v19.8c0,1.6-0.1,2.8-0.4,3.4c-0.3,0.6-0.8,0.9-1.5,0.9c-0.6,0-1-0.2-1.4-0.7c-0.3-0.5-0.6-1.3-0.8-2.4
			c-0.4-2.4-1-4.2-1.8-5.5C658.2,612.7,657.2,611.8,655.9,611.4z M656.1,573.5h15.2v18.4c0,1.1-0.1,1.9-0.5,2.3
			c-0.3,0.5-0.8,0.7-1.4,0.7c-0.5,0-1-0.2-1.2-0.5c-0.3-0.3-0.5-1-0.7-1.9c-1-4-2.4-7.1-4.2-9.2c-1.9-2.1-4.3-3.4-7.2-3.8V573.5z
			 M656.1,644.5v-5.6c1.6-0.3,3-0.8,4.1-1.5c1.1-0.6,2.1-1.6,3.2-2.9c1.1-1.3,1.9-2.6,2.6-4c0.6-1.4,1.3-3.2,1.8-5.4
			c0.3-1.1,0.6-1.9,0.9-2.3c0.3-0.4,0.7-0.6,1.2-0.6c0.7,0,1.2,0.3,1.5,0.9c0.3,0.6,0.4,1.6,0.4,3v18.4H656.1z"/>
		<path class="st11" d="M695.2,572c2.2,0,4,1.2,5.5,3.6c1.4,2.4,2.2,5.5,2.2,9.3c0,1.6-0.1,3.2-0.4,4.9c-0.3,1.7-0.8,4.2-1.6,7.7
			c-1.2,4.9-2,8.7-2.4,11.6c-0.5,2.9-0.7,5.7-0.8,8.5c-0.1,1.4-0.3,2.4-0.6,3c-0.3,0.6-0.9,0.9-1.6,0.9c-0.7,0-1.1-0.3-1.5-0.8
			c-0.3-0.5-0.5-1.3-0.5-2.5c-0.1-2.3-0.3-4-0.4-4.9c-0.1-1-0.3-2.4-0.7-4.5c-0.6-3.3-1.4-6.8-2.3-10.5c-1.1-4.4-1.9-7.4-2.1-9.1
			c-0.3-1.6-0.4-3.4-0.4-5.4c0-3.1,0.7-5.9,2.1-8.2C690.8,573.3,692.8,572,695.2,572z M695,625.7c2,0,3.7,1,5.2,3
			c1.4,2,2.1,4.4,2.1,7.1c0,2.8-0.7,5.2-2.1,7.2c-1.4,2-3.2,3-5.2,3c-2,0-3.8-1-5.2-3c-1.4-2-2.2-4.4-2.2-7.2c0-2.8,0.7-5.2,2.2-7.1
			C691.3,626.7,693,625.7,695,625.7z"/>
	</g>
</g>
</svg>
